G04 #@! TF.GenerationSoftware,KiCad,Pcbnew,5.0.0-rc2-unknown-9302bbc~65~ubuntu16.04.1*
G04 #@! TF.CreationDate,2018-06-15T14:22:43+03:00*
G04 #@! TF.ProjectId,cranklight,6372616E6B6C696768742E6B69636164,rev?*
G04 #@! TF.SameCoordinates,Original*
G04 #@! TF.FileFunction,Copper,L1,Top,Signal*
G04 #@! TF.FilePolarity,Positive*
%FSLAX46Y46*%
G04 Gerber Fmt 4.6, Leading zero omitted, Abs format (unit mm)*
G04 Created by KiCad (PCBNEW 5.0.0-rc2-unknown-9302bbc~65~ubuntu16.04.1) date Fri Jun 15 14:22:43 2018*
%MOMM*%
%LPD*%
G01*
G04 APERTURE LIST*
G04 #@! TA.AperFunction,ComponentPad*
%ADD10C,2.000000*%
G04 #@! TD*
G04 #@! TA.AperFunction,ComponentPad*
%ADD11O,1.700000X1.700000*%
G04 #@! TD*
G04 #@! TA.AperFunction,ComponentPad*
%ADD12R,1.700000X1.700000*%
G04 #@! TD*
G04 #@! TA.AperFunction,SMDPad,CuDef*
%ADD13R,1.325000X1.400000*%
G04 #@! TD*
G04 #@! TA.AperFunction,ComponentPad*
%ADD14O,1.800000X1.800000*%
G04 #@! TD*
G04 #@! TA.AperFunction,ComponentPad*
%ADD15R,1.800000X1.800000*%
G04 #@! TD*
G04 #@! TA.AperFunction,ComponentPad*
%ADD16O,4.000000X4.000000*%
G04 #@! TD*
G04 #@! TA.AperFunction,SMDPad,CuDef*
%ADD17R,0.970000X1.500000*%
G04 #@! TD*
G04 #@! TA.AperFunction,ComponentPad*
%ADD18C,2.200000*%
G04 #@! TD*
G04 #@! TA.AperFunction,ComponentPad*
%ADD19C,1.800000*%
G04 #@! TD*
G04 #@! TA.AperFunction,ComponentPad*
%ADD20C,2.800000*%
G04 #@! TD*
G04 #@! TA.AperFunction,ComponentPad*
%ADD21O,1.600000X1.600000*%
G04 #@! TD*
G04 #@! TA.AperFunction,ComponentPad*
%ADD22C,1.600000*%
G04 #@! TD*
G04 #@! TA.AperFunction,ComponentPad*
%ADD23R,1.600000X1.600000*%
G04 #@! TD*
G04 #@! TA.AperFunction,SMDPad,CuDef*
%ADD24R,1.145000X1.500000*%
G04 #@! TD*
G04 #@! TA.AperFunction,ViaPad*
%ADD25C,1.600000*%
G04 #@! TD*
G04 #@! TA.AperFunction,Conductor*
%ADD26C,0.800000*%
G04 #@! TD*
G04 #@! TA.AperFunction,Conductor*
%ADD27C,1.000000*%
G04 #@! TD*
G04 #@! TA.AperFunction,Conductor*
%ADD28C,2.000000*%
G04 #@! TD*
G04 #@! TA.AperFunction,Conductor*
%ADD29C,0.254000*%
G04 #@! TD*
G04 APERTURE END LIST*
D10*
G04 #@! TO.P,F1,2*
G04 #@! TO.N,+5V*
X104000000Y-122500000D03*
G04 #@! TO.P,F1,1*
G04 #@! TO.N,Net-(C4-Pad1)*
X104000000Y-112000000D03*
G04 #@! TD*
D11*
G04 #@! TO.P,J3,2*
G04 #@! TO.N,GND*
X129040000Y-109000000D03*
D12*
G04 #@! TO.P,J3,1*
G04 #@! TO.N,+BATT*
X126500000Y-109000000D03*
G04 #@! TD*
D13*
G04 #@! TO.P,R2,2*
G04 #@! TO.N,Net-(C1-Pad1)*
X170662500Y-126000000D03*
G04 #@! TO.P,R2,1*
G04 #@! TO.N,GND*
X172537500Y-126000000D03*
G04 #@! TD*
G04 #@! TO.P,R4,1*
G04 #@! TO.N,GND*
X123262500Y-119400000D03*
G04 #@! TO.P,R4,2*
G04 #@! TO.N,Net-(R3-Pad2)*
X125137500Y-119400000D03*
G04 #@! TD*
D14*
G04 #@! TO.P,Q1,3*
G04 #@! TO.N,GND*
X110920000Y-115000000D03*
G04 #@! TO.P,Q1,2*
G04 #@! TO.N,Net-(J2-Pad2)*
X113460000Y-115000000D03*
D15*
G04 #@! TO.P,Q1,1*
G04 #@! TO.N,Net-(Q1-Pad1)*
X116000000Y-115000000D03*
D16*
G04 #@! TO.P,Q1,2*
G04 #@! TO.N,Net-(J2-Pad2)*
X113460000Y-131660000D03*
G04 #@! TD*
D17*
G04 #@! TO.P,D1,2*
G04 #@! TO.N,Net-(D1-Pad2)*
X135355000Y-103400000D03*
G04 #@! TO.P,D1,1*
G04 #@! TO.N,GND*
X133445000Y-103400000D03*
G04 #@! TD*
G04 #@! TO.P,D2,1*
G04 #@! TO.N,GND*
X133445000Y-101200000D03*
G04 #@! TO.P,D2,2*
G04 #@! TO.N,Net-(D2-Pad2)*
X135355000Y-101200000D03*
G04 #@! TD*
D18*
G04 #@! TO.P,SW1,0*
G04 #@! TO.N,N/C*
X121600000Y-107550000D03*
X108400000Y-102450000D03*
D19*
G04 #@! TO.P,SW1,8*
X112000000Y-106000000D03*
G04 #@! TO.P,SW1,1*
X120000000Y-104000000D03*
G04 #@! TO.P,SW1,7*
X110000000Y-106000000D03*
G04 #@! TO.P,SW1,6*
G04 #@! TO.N,Net-(SW1-Pad6)*
X110000000Y-104000000D03*
G04 #@! TO.P,SW1,5*
G04 #@! TO.N,Net-(SW1-Pad5)*
X112000000Y-104000000D03*
G04 #@! TO.P,SW1,4*
G04 #@! TO.N,Net-(SW1-Pad4)*
X114000000Y-104000000D03*
G04 #@! TO.P,SW1,3*
G04 #@! TO.N,N/C*
X116000000Y-104000000D03*
G04 #@! TO.P,SW1,2*
X118000000Y-104000000D03*
G04 #@! TO.P,SW1,9*
X114000000Y-106000000D03*
G04 #@! TO.P,SW1,10*
G04 #@! TO.N,Net-(SW1-Pad10)*
X116000000Y-106000000D03*
G04 #@! TO.P,SW1,11*
G04 #@! TO.N,VCC*
X118000000Y-106000000D03*
G04 #@! TO.P,SW1,12*
G04 #@! TO.N,+BATT*
X120000000Y-106000000D03*
G04 #@! TD*
D20*
G04 #@! TO.P,U2,1*
G04 #@! TO.N,GND*
X128200000Y-132600000D03*
G04 #@! TO.P,U2,2*
G04 #@! TO.N,VCC*
X134540000Y-132600000D03*
G04 #@! TO.P,U2,3*
G04 #@! TO.N,Net-(U2-Pad3)*
X137720000Y-113540000D03*
G04 #@! TO.P,U2,4*
G04 #@! TO.N,+5V*
X128200000Y-113540000D03*
G04 #@! TD*
D21*
G04 #@! TO.P,R1,2*
G04 #@! TO.N,VCC*
X168000000Y-131620000D03*
D22*
G04 #@! TO.P,R1,1*
G04 #@! TO.N,Net-(C1-Pad1)*
X168000000Y-124000000D03*
G04 #@! TD*
G04 #@! TO.P,C5,2*
G04 #@! TO.N,GND*
X136000000Y-109000000D03*
D23*
G04 #@! TO.P,C5,1*
G04 #@! TO.N,+5V*
X138500000Y-109000000D03*
G04 #@! TD*
D21*
G04 #@! TO.P,R3,2*
G04 #@! TO.N,Net-(R3-Pad2)*
X125420000Y-117000000D03*
D22*
G04 #@! TO.P,R3,1*
G04 #@! TO.N,Net-(Q1-Pad1)*
X117800000Y-117000000D03*
G04 #@! TD*
G04 #@! TO.P,C3,2*
G04 #@! TO.N,GND*
X121000000Y-122500000D03*
D23*
G04 #@! TO.P,C3,1*
G04 #@! TO.N,VCC*
X123500000Y-122500000D03*
G04 #@! TD*
D12*
G04 #@! TO.P,J2,1*
G04 #@! TO.N,Net-(C4-Pad1)*
X111000000Y-111000000D03*
D11*
G04 #@! TO.P,J2,2*
G04 #@! TO.N,Net-(J2-Pad2)*
X113540000Y-111000000D03*
G04 #@! TD*
D12*
G04 #@! TO.P,J1,1*
G04 #@! TO.N,+BATT*
X133000000Y-106500000D03*
D11*
G04 #@! TO.P,J1,2*
G04 #@! TO.N,GND*
X133000000Y-109040000D03*
G04 #@! TD*
D24*
G04 #@! TO.P,C1,1*
G04 #@! TO.N,Net-(C1-Pad1)*
X170557500Y-124000000D03*
G04 #@! TO.P,C1,2*
G04 #@! TO.N,GND*
X172642500Y-124000000D03*
G04 #@! TD*
D19*
G04 #@! TO.P,U1,8*
G04 #@! TO.N,Net-(U1-Pad8)*
X142070000Y-126660000D03*
G04 #@! TO.P,U1,7*
G04 #@! TO.N,Net-(U1-Pad7)*
X142070000Y-124120000D03*
G04 #@! TO.P,U1,6*
G04 #@! TO.N,Net-(U1-Pad6)*
X142070000Y-121580000D03*
G04 #@! TO.P,U1,5*
G04 #@! TO.N,Net-(U1-Pad5)*
X142070000Y-119040000D03*
G04 #@! TO.P,U1,4*
G04 #@! TO.N,Net-(R6-Pad2)*
X142070000Y-116500000D03*
G04 #@! TO.P,U1,3*
G04 #@! TO.N,Net-(R5-Pad2)*
X142070000Y-113960000D03*
G04 #@! TO.P,U1,2*
G04 #@! TO.N,GND*
X142070000Y-111420000D03*
G04 #@! TO.P,U1,1*
G04 #@! TO.N,+5V*
X142070000Y-108880000D03*
G04 #@! TO.P,U1,16*
G04 #@! TO.N,Net-(U1-Pad16)*
X164930000Y-108880000D03*
G04 #@! TO.P,U1,15*
G04 #@! TO.N,Net-(U1-Pad15)*
X164930000Y-111420000D03*
G04 #@! TO.P,U1,14*
G04 #@! TO.N,Net-(U1-Pad14)*
X164930000Y-113960000D03*
G04 #@! TO.P,U1,13*
G04 #@! TO.N,Net-(U1-Pad13)*
X164930000Y-116500000D03*
G04 #@! TO.P,U1,12*
G04 #@! TO.N,Net-(U1-Pad12)*
X164930000Y-119040000D03*
G04 #@! TO.P,U1,11*
G04 #@! TO.N,Net-(R3-Pad2)*
X164930000Y-121580000D03*
G04 #@! TO.P,U1,10*
G04 #@! TO.N,Net-(C1-Pad1)*
X164930000Y-124120000D03*
G04 #@! TO.P,U1,9*
G04 #@! TO.N,Net-(U1-Pad9)*
X164930000Y-126660000D03*
G04 #@! TD*
D25*
G04 #@! TO.N,GND*
X146200000Y-111000000D03*
X131000000Y-132500000D03*
G04 #@! TO.N,+5V*
X119900000Y-114600000D03*
X125500000Y-114400000D03*
G04 #@! TO.N,Net-(D2-Pad2)*
X138600000Y-101200000D03*
G04 #@! TO.N,Net-(D1-Pad2)*
X138600000Y-103400000D03*
G04 #@! TD*
D26*
G04 #@! TO.N,Net-(R3-Pad2)*
X125420000Y-117000000D02*
X125420000Y-119222500D01*
X125420000Y-119222500D02*
X125242500Y-119400000D01*
D27*
G04 #@! TO.N,Net-(C1-Pad1)*
X170557500Y-126000000D02*
X170557500Y-124000000D01*
X168100000Y-124000000D02*
X170557500Y-124000000D01*
D28*
G04 #@! TO.N,+5V*
X119900000Y-114600000D02*
X125300000Y-114600000D01*
X125300000Y-114600000D02*
X125500000Y-114400000D01*
D27*
G04 #@! TO.N,Net-(D2-Pad2)*
X138600000Y-101200000D02*
X135355000Y-101200000D01*
G04 #@! TO.N,Net-(D1-Pad2)*
X138600000Y-103400000D02*
X135355000Y-103400000D01*
G04 #@! TD*
D29*
G04 #@! TO.N,Net-(J2-Pad2)*
G36*
X118873000Y-134265000D02*
X113587002Y-134265000D01*
X113587002Y-134133194D01*
X113997163Y-134239672D01*
X114943472Y-133837743D01*
X115663936Y-133104272D01*
X116039667Y-132197162D01*
X115932991Y-131787000D01*
X113587000Y-131787000D01*
X113587000Y-131807000D01*
X113333000Y-131807000D01*
X113333000Y-131787000D01*
X110987009Y-131787000D01*
X110880333Y-132197162D01*
X111256064Y-133104272D01*
X111976528Y-133837743D01*
X112922837Y-134239672D01*
X113332998Y-134133194D01*
X113332998Y-134265000D01*
X100735000Y-134265000D01*
X100735000Y-130475866D01*
X101365000Y-130475866D01*
X101365000Y-131524134D01*
X101766155Y-132492608D01*
X102507392Y-133233845D01*
X103475866Y-133635000D01*
X104524134Y-133635000D01*
X105492608Y-133233845D01*
X106233845Y-132492608D01*
X106635000Y-131524134D01*
X106635000Y-131122838D01*
X110880333Y-131122838D01*
X110987009Y-131533000D01*
X113333000Y-131533000D01*
X113333000Y-129186807D01*
X113587000Y-129186807D01*
X113587000Y-131533000D01*
X115932991Y-131533000D01*
X116039667Y-131122838D01*
X115663936Y-130215728D01*
X114943472Y-129482257D01*
X113997163Y-129080328D01*
X113587000Y-129186807D01*
X113333000Y-129186807D01*
X112922837Y-129080328D01*
X111976528Y-129482257D01*
X111256064Y-130215728D01*
X110880333Y-131122838D01*
X106635000Y-131122838D01*
X106635000Y-130475866D01*
X106233845Y-129507392D01*
X105492608Y-128766155D01*
X104524134Y-128365000D01*
X103475866Y-128365000D01*
X102507392Y-128766155D01*
X101766155Y-129507392D01*
X101365000Y-130475866D01*
X100735000Y-130475866D01*
X100735000Y-122174778D01*
X102365000Y-122174778D01*
X102365000Y-122825222D01*
X102613914Y-123426153D01*
X103073847Y-123886086D01*
X103674778Y-124135000D01*
X104325222Y-124135000D01*
X104926153Y-123886086D01*
X105386086Y-123426153D01*
X105635000Y-122825222D01*
X105635000Y-122174778D01*
X105386086Y-121573847D01*
X104926153Y-121113914D01*
X104325222Y-120865000D01*
X103674778Y-120865000D01*
X103073847Y-121113914D01*
X102613914Y-121573847D01*
X102365000Y-122174778D01*
X100735000Y-122174778D01*
X100735000Y-120627000D01*
X118873000Y-120627000D01*
X118873000Y-134265000D01*
X118873000Y-134265000D01*
G37*
X118873000Y-134265000D02*
X113587002Y-134265000D01*
X113587002Y-134133194D01*
X113997163Y-134239672D01*
X114943472Y-133837743D01*
X115663936Y-133104272D01*
X116039667Y-132197162D01*
X115932991Y-131787000D01*
X113587000Y-131787000D01*
X113587000Y-131807000D01*
X113333000Y-131807000D01*
X113333000Y-131787000D01*
X110987009Y-131787000D01*
X110880333Y-132197162D01*
X111256064Y-133104272D01*
X111976528Y-133837743D01*
X112922837Y-134239672D01*
X113332998Y-134133194D01*
X113332998Y-134265000D01*
X100735000Y-134265000D01*
X100735000Y-130475866D01*
X101365000Y-130475866D01*
X101365000Y-131524134D01*
X101766155Y-132492608D01*
X102507392Y-133233845D01*
X103475866Y-133635000D01*
X104524134Y-133635000D01*
X105492608Y-133233845D01*
X106233845Y-132492608D01*
X106635000Y-131524134D01*
X106635000Y-131122838D01*
X110880333Y-131122838D01*
X110987009Y-131533000D01*
X113333000Y-131533000D01*
X113333000Y-129186807D01*
X113587000Y-129186807D01*
X113587000Y-131533000D01*
X115932991Y-131533000D01*
X116039667Y-131122838D01*
X115663936Y-130215728D01*
X114943472Y-129482257D01*
X113997163Y-129080328D01*
X113587000Y-129186807D01*
X113333000Y-129186807D01*
X112922837Y-129080328D01*
X111976528Y-129482257D01*
X111256064Y-130215728D01*
X110880333Y-131122838D01*
X106635000Y-131122838D01*
X106635000Y-130475866D01*
X106233845Y-129507392D01*
X105492608Y-128766155D01*
X104524134Y-128365000D01*
X103475866Y-128365000D01*
X102507392Y-128766155D01*
X101766155Y-129507392D01*
X101365000Y-130475866D01*
X100735000Y-130475866D01*
X100735000Y-122174778D01*
X102365000Y-122174778D01*
X102365000Y-122825222D01*
X102613914Y-123426153D01*
X103073847Y-123886086D01*
X103674778Y-124135000D01*
X104325222Y-124135000D01*
X104926153Y-123886086D01*
X105386086Y-123426153D01*
X105635000Y-122825222D01*
X105635000Y-122174778D01*
X105386086Y-121573847D01*
X104926153Y-121113914D01*
X104325222Y-120865000D01*
X103674778Y-120865000D01*
X103073847Y-121113914D01*
X102613914Y-121573847D01*
X102365000Y-122174778D01*
X100735000Y-122174778D01*
X100735000Y-120627000D01*
X118873000Y-120627000D01*
X118873000Y-134265000D01*
G04 #@! TO.N,GND*
G36*
X164080004Y-100785301D02*
X165645984Y-101008172D01*
X167184041Y-101377428D01*
X168680527Y-101889788D01*
X170122140Y-102540702D01*
X171496109Y-103324400D01*
X172790227Y-104233921D01*
X173993008Y-105261194D01*
X175093769Y-106397090D01*
X176082759Y-107631553D01*
X176951179Y-108953596D01*
X177691334Y-110351505D01*
X178296643Y-111812851D01*
X178761747Y-113324693D01*
X179082508Y-114873590D01*
X179256082Y-116445799D01*
X179280927Y-118027360D01*
X179156824Y-119604239D01*
X178884871Y-121162455D01*
X178467487Y-122688157D01*
X177908376Y-124167801D01*
X177212497Y-125588264D01*
X176386026Y-126936943D01*
X175436312Y-128201844D01*
X174825607Y-128873000D01*
X140000000Y-128873000D01*
X139951399Y-128882667D01*
X139910197Y-128910197D01*
X139882667Y-128951399D01*
X139873000Y-129000000D01*
X139873000Y-134265000D01*
X135752925Y-134265000D01*
X136265190Y-133752735D01*
X136575000Y-133004787D01*
X136575000Y-132195213D01*
X136265190Y-131447265D01*
X135692735Y-130874810D01*
X134944787Y-130565000D01*
X134135213Y-130565000D01*
X133387265Y-130874810D01*
X132814810Y-131447265D01*
X132505000Y-132195213D01*
X132505000Y-133004787D01*
X132814810Y-133752735D01*
X133327075Y-134265000D01*
X129355272Y-134265000D01*
X129462118Y-134041724D01*
X128200000Y-132779605D01*
X126937882Y-134041724D01*
X127044728Y-134265000D01*
X120127000Y-134265000D01*
X120127000Y-132240031D01*
X126156595Y-132240031D01*
X126174386Y-133049409D01*
X126449894Y-133714545D01*
X126758276Y-133862118D01*
X128020395Y-132600000D01*
X128379605Y-132600000D01*
X129641724Y-133862118D01*
X129950106Y-133714545D01*
X130243405Y-132959969D01*
X130225614Y-132150591D01*
X129950106Y-131485455D01*
X129641724Y-131337882D01*
X128379605Y-132600000D01*
X128020395Y-132600000D01*
X126758276Y-131337882D01*
X126449894Y-131485455D01*
X126156595Y-132240031D01*
X120127000Y-132240031D01*
X120127000Y-131158276D01*
X126937882Y-131158276D01*
X128200000Y-132420395D01*
X129462118Y-131158276D01*
X129314545Y-130849894D01*
X128559969Y-130556595D01*
X127750591Y-130574386D01*
X127085455Y-130849894D01*
X126937882Y-131158276D01*
X120127000Y-131158276D01*
X120127000Y-123552608D01*
X120171861Y-123507747D01*
X120245995Y-123753864D01*
X120783223Y-123946965D01*
X121353454Y-123919778D01*
X121754005Y-123753864D01*
X121828139Y-123507745D01*
X121000000Y-122679605D01*
X120985858Y-122693748D01*
X120806252Y-122514142D01*
X120820395Y-122500000D01*
X121179605Y-122500000D01*
X122007745Y-123328139D01*
X122055307Y-123313813D01*
X122101843Y-123547765D01*
X122242191Y-123757809D01*
X122452235Y-123898157D01*
X122700000Y-123947440D01*
X124300000Y-123947440D01*
X124547765Y-123898157D01*
X124757809Y-123757809D01*
X124898157Y-123547765D01*
X124947440Y-123300000D01*
X124947440Y-121700000D01*
X124898157Y-121452235D01*
X124757809Y-121242191D01*
X124547765Y-121101843D01*
X124300000Y-121052560D01*
X122700000Y-121052560D01*
X122452235Y-121101843D01*
X122242191Y-121242191D01*
X122101843Y-121452235D01*
X122055307Y-121686187D01*
X122007745Y-121671861D01*
X121179605Y-122500000D01*
X120820395Y-122500000D01*
X120806252Y-122485858D01*
X120985858Y-122306252D01*
X121000000Y-122320395D01*
X121828139Y-121492255D01*
X121754005Y-121246136D01*
X121216777Y-121053035D01*
X120646546Y-121080222D01*
X120245995Y-121246136D01*
X120171861Y-121492253D01*
X120127000Y-121447392D01*
X120127000Y-119685750D01*
X121965000Y-119685750D01*
X121965000Y-120226310D01*
X122061673Y-120459699D01*
X122240302Y-120638327D01*
X122473691Y-120735000D01*
X122976750Y-120735000D01*
X123135500Y-120576250D01*
X123135500Y-119527000D01*
X122123750Y-119527000D01*
X121965000Y-119685750D01*
X120127000Y-119685750D01*
X120127000Y-119500000D01*
X120117333Y-119451399D01*
X120089803Y-119410197D01*
X120048601Y-119382667D01*
X120000000Y-119373000D01*
X100735000Y-119373000D01*
X100735000Y-118573690D01*
X121965000Y-118573690D01*
X121965000Y-119114250D01*
X122123750Y-119273000D01*
X123135500Y-119273000D01*
X123135500Y-118223750D01*
X122976750Y-118065000D01*
X122473691Y-118065000D01*
X122240302Y-118161673D01*
X122061673Y-118340301D01*
X121965000Y-118573690D01*
X100735000Y-118573690D01*
X100735000Y-115364740D01*
X109428964Y-115364740D01*
X109607760Y-115796417D01*
X110012424Y-116237966D01*
X110555258Y-116491046D01*
X110793000Y-116370997D01*
X110793000Y-115127000D01*
X109549622Y-115127000D01*
X109428964Y-115364740D01*
X100735000Y-115364740D01*
X100735000Y-114635260D01*
X109428964Y-114635260D01*
X109549622Y-114873000D01*
X110793000Y-114873000D01*
X110793000Y-113629003D01*
X111047000Y-113629003D01*
X111047000Y-114873000D01*
X111067000Y-114873000D01*
X111067000Y-115127000D01*
X111047000Y-115127000D01*
X111047000Y-116370997D01*
X111284742Y-116491046D01*
X111827576Y-116237966D01*
X112182376Y-115850826D01*
X112353327Y-116106673D01*
X112861073Y-116445938D01*
X113308818Y-116535000D01*
X113611182Y-116535000D01*
X114058927Y-116445938D01*
X114502871Y-116149304D01*
X114642191Y-116357809D01*
X114852235Y-116498157D01*
X115100000Y-116547440D01*
X116434224Y-116547440D01*
X116365000Y-116714561D01*
X116365000Y-117285439D01*
X116583466Y-117812862D01*
X116987138Y-118216534D01*
X117514561Y-118435000D01*
X118085439Y-118435000D01*
X118612862Y-118216534D01*
X119016534Y-117812862D01*
X119235000Y-117285439D01*
X119235000Y-116714561D01*
X119016534Y-116187138D01*
X118612862Y-115783466D01*
X118085439Y-115565000D01*
X117547440Y-115565000D01*
X117547440Y-114600000D01*
X118232969Y-114600000D01*
X118359864Y-115237945D01*
X118721231Y-115778769D01*
X119262055Y-116140136D01*
X119738969Y-116235000D01*
X124205297Y-116235000D01*
X124068260Y-116440091D01*
X123956887Y-117000000D01*
X124068260Y-117559909D01*
X124385000Y-118033945D01*
X124385000Y-118070462D01*
X124227235Y-118101843D01*
X124193950Y-118124084D01*
X124051309Y-118065000D01*
X123548250Y-118065000D01*
X123389500Y-118223750D01*
X123389500Y-119273000D01*
X123409500Y-119273000D01*
X123409500Y-119527000D01*
X123389500Y-119527000D01*
X123389500Y-120576250D01*
X123548250Y-120735000D01*
X124051309Y-120735000D01*
X124193950Y-120675916D01*
X124227235Y-120698157D01*
X124475000Y-120747440D01*
X125800000Y-120747440D01*
X126047765Y-120698157D01*
X126257809Y-120557809D01*
X126398157Y-120347765D01*
X126447440Y-120100000D01*
X126447440Y-119362442D01*
X126455000Y-119324435D01*
X126455000Y-119324434D01*
X126475276Y-119222500D01*
X126455000Y-119120566D01*
X126455000Y-118033944D01*
X126771740Y-117559909D01*
X126883113Y-117000000D01*
X126771740Y-116440091D01*
X126454577Y-115965423D01*
X126326999Y-115880178D01*
X126478769Y-115778769D01*
X126569988Y-115642250D01*
X126769985Y-115442253D01*
X126951970Y-115169895D01*
X127047265Y-115265190D01*
X127795213Y-115575000D01*
X128604787Y-115575000D01*
X129352735Y-115265190D01*
X129925190Y-114692735D01*
X130235000Y-113944787D01*
X130235000Y-113135213D01*
X135685000Y-113135213D01*
X135685000Y-113944787D01*
X135994810Y-114692735D01*
X136567265Y-115265190D01*
X137315213Y-115575000D01*
X138124787Y-115575000D01*
X138872735Y-115265190D01*
X139445190Y-114692735D01*
X139755000Y-113944787D01*
X139755000Y-113654670D01*
X140535000Y-113654670D01*
X140535000Y-114265330D01*
X140768690Y-114829507D01*
X141169183Y-115230000D01*
X140768690Y-115630493D01*
X140535000Y-116194670D01*
X140535000Y-116805330D01*
X140768690Y-117369507D01*
X141169183Y-117770000D01*
X140768690Y-118170493D01*
X140535000Y-118734670D01*
X140535000Y-119345330D01*
X140768690Y-119909507D01*
X141169183Y-120310000D01*
X140768690Y-120710493D01*
X140535000Y-121274670D01*
X140535000Y-121885330D01*
X140768690Y-122449507D01*
X141169183Y-122850000D01*
X140768690Y-123250493D01*
X140535000Y-123814670D01*
X140535000Y-124425330D01*
X140768690Y-124989507D01*
X141169183Y-125390000D01*
X140768690Y-125790493D01*
X140535000Y-126354670D01*
X140535000Y-126965330D01*
X140768690Y-127529507D01*
X141200493Y-127961310D01*
X141764670Y-128195000D01*
X142375330Y-128195000D01*
X142939507Y-127961310D01*
X143371310Y-127529507D01*
X143605000Y-126965330D01*
X143605000Y-126354670D01*
X143371310Y-125790493D01*
X142970817Y-125390000D01*
X143371310Y-124989507D01*
X143605000Y-124425330D01*
X143605000Y-123814670D01*
X143371310Y-123250493D01*
X142970817Y-122850000D01*
X143371310Y-122449507D01*
X143605000Y-121885330D01*
X143605000Y-121274670D01*
X143371310Y-120710493D01*
X142970817Y-120310000D01*
X143371310Y-119909507D01*
X143605000Y-119345330D01*
X143605000Y-118734670D01*
X143371310Y-118170493D01*
X142970817Y-117770000D01*
X143371310Y-117369507D01*
X143605000Y-116805330D01*
X143605000Y-116194670D01*
X143371310Y-115630493D01*
X142970817Y-115230000D01*
X143371310Y-114829507D01*
X143605000Y-114265330D01*
X143605000Y-113654670D01*
X143371310Y-113090493D01*
X142939507Y-112658690D01*
X142919885Y-112650562D01*
X142970554Y-112500159D01*
X142070000Y-111599605D01*
X141169446Y-112500159D01*
X141220115Y-112650562D01*
X141200493Y-112658690D01*
X140768690Y-113090493D01*
X140535000Y-113654670D01*
X139755000Y-113654670D01*
X139755000Y-113135213D01*
X139445190Y-112387265D01*
X138872735Y-111814810D01*
X138124787Y-111505000D01*
X137315213Y-111505000D01*
X136567265Y-111814810D01*
X135994810Y-112387265D01*
X135685000Y-113135213D01*
X130235000Y-113135213D01*
X129925190Y-112387265D01*
X129352735Y-111814810D01*
X128604787Y-111505000D01*
X127795213Y-111505000D01*
X127047265Y-111814810D01*
X126474810Y-112387265D01*
X126248465Y-112933711D01*
X126137945Y-112859864D01*
X125500000Y-112732969D01*
X124862055Y-112859864D01*
X124704708Y-112965000D01*
X119738969Y-112965000D01*
X119262055Y-113059864D01*
X118721231Y-113421231D01*
X118359864Y-113962055D01*
X118232969Y-114600000D01*
X117547440Y-114600000D01*
X117547440Y-114100000D01*
X117498157Y-113852235D01*
X117357809Y-113642191D01*
X117147765Y-113501843D01*
X116900000Y-113452560D01*
X115100000Y-113452560D01*
X114852235Y-113501843D01*
X114642191Y-113642191D01*
X114502871Y-113850696D01*
X114058927Y-113554062D01*
X113611182Y-113465000D01*
X113308818Y-113465000D01*
X112861073Y-113554062D01*
X112353327Y-113893327D01*
X112182376Y-114149174D01*
X111827576Y-113762034D01*
X111284742Y-113508954D01*
X111047000Y-113629003D01*
X110793000Y-113629003D01*
X110555258Y-113508954D01*
X110012424Y-113762034D01*
X109607760Y-114203583D01*
X109428964Y-114635260D01*
X100735000Y-114635260D01*
X100735000Y-111674778D01*
X102365000Y-111674778D01*
X102365000Y-112325222D01*
X102613914Y-112926153D01*
X103073847Y-113386086D01*
X103674778Y-113635000D01*
X104325222Y-113635000D01*
X104926153Y-113386086D01*
X105386086Y-112926153D01*
X105635000Y-112325222D01*
X105635000Y-111674778D01*
X105386086Y-111073847D01*
X104926153Y-110613914D01*
X104325222Y-110365000D01*
X103674778Y-110365000D01*
X103073847Y-110613914D01*
X102613914Y-111073847D01*
X102365000Y-111674778D01*
X100735000Y-111674778D01*
X100735000Y-110150000D01*
X109502560Y-110150000D01*
X109502560Y-111850000D01*
X109551843Y-112097765D01*
X109692191Y-112307809D01*
X109902235Y-112448157D01*
X110150000Y-112497440D01*
X111850000Y-112497440D01*
X112097765Y-112448157D01*
X112307809Y-112307809D01*
X112448157Y-112097765D01*
X112457184Y-112052381D01*
X112469375Y-112070625D01*
X112960582Y-112398839D01*
X113393744Y-112485000D01*
X113686256Y-112485000D01*
X114119418Y-112398839D01*
X114610625Y-112070625D01*
X114938839Y-111579418D01*
X115018419Y-111179336D01*
X140523542Y-111179336D01*
X140549161Y-111789460D01*
X140733357Y-112234148D01*
X140989841Y-112320554D01*
X141890395Y-111420000D01*
X142249605Y-111420000D01*
X143150159Y-112320554D01*
X143406643Y-112234148D01*
X143616458Y-111660664D01*
X143590839Y-111050540D01*
X143406643Y-110605852D01*
X143150159Y-110519446D01*
X142249605Y-111420000D01*
X141890395Y-111420000D01*
X140989841Y-110519446D01*
X140733357Y-110605852D01*
X140523542Y-111179336D01*
X115018419Y-111179336D01*
X115054092Y-111000000D01*
X114938839Y-110420582D01*
X114610625Y-109929375D01*
X114119418Y-109601161D01*
X113686256Y-109515000D01*
X113393744Y-109515000D01*
X112960582Y-109601161D01*
X112469375Y-109929375D01*
X112457184Y-109947619D01*
X112448157Y-109902235D01*
X112307809Y-109692191D01*
X112097765Y-109551843D01*
X111850000Y-109502560D01*
X110150000Y-109502560D01*
X109902235Y-109551843D01*
X109692191Y-109692191D01*
X109551843Y-109902235D01*
X109502560Y-110150000D01*
X100735000Y-110150000D01*
X100735000Y-103475866D01*
X101365000Y-103475866D01*
X101365000Y-104524134D01*
X101766155Y-105492608D01*
X102507392Y-106233845D01*
X103475866Y-106635000D01*
X104524134Y-106635000D01*
X105492608Y-106233845D01*
X106233845Y-105492608D01*
X106635000Y-104524134D01*
X106635000Y-103475866D01*
X106233845Y-102507392D01*
X105492608Y-101766155D01*
X104524134Y-101365000D01*
X103475866Y-101365000D01*
X102507392Y-101766155D01*
X101766155Y-102507392D01*
X101365000Y-103475866D01*
X100735000Y-103475866D01*
X100735000Y-100735000D01*
X108006603Y-100735000D01*
X107417201Y-100979138D01*
X106929138Y-101467201D01*
X106665000Y-102104887D01*
X106665000Y-102795113D01*
X106929138Y-103432799D01*
X107417201Y-103920862D01*
X108054887Y-104185000D01*
X108465000Y-104185000D01*
X108465000Y-104305330D01*
X108698690Y-104869507D01*
X108829183Y-105000000D01*
X108698690Y-105130493D01*
X108465000Y-105694670D01*
X108465000Y-106305330D01*
X108698690Y-106869507D01*
X109130493Y-107301310D01*
X109694670Y-107535000D01*
X110305330Y-107535000D01*
X110869507Y-107301310D01*
X111000000Y-107170817D01*
X111130493Y-107301310D01*
X111694670Y-107535000D01*
X112305330Y-107535000D01*
X112869507Y-107301310D01*
X113000000Y-107170817D01*
X113130493Y-107301310D01*
X113694670Y-107535000D01*
X114305330Y-107535000D01*
X114869507Y-107301310D01*
X115000000Y-107170817D01*
X115130493Y-107301310D01*
X115694670Y-107535000D01*
X116305330Y-107535000D01*
X116869507Y-107301310D01*
X117000000Y-107170817D01*
X117130493Y-107301310D01*
X117694670Y-107535000D01*
X118305330Y-107535000D01*
X118869507Y-107301310D01*
X119000000Y-107170817D01*
X119130493Y-107301310D01*
X119694670Y-107535000D01*
X119865000Y-107535000D01*
X119865000Y-107895113D01*
X120129138Y-108532799D01*
X120617201Y-109020862D01*
X121254887Y-109285000D01*
X121945113Y-109285000D01*
X122582799Y-109020862D01*
X123070862Y-108532799D01*
X123229422Y-108150000D01*
X125002560Y-108150000D01*
X125002560Y-109850000D01*
X125051843Y-110097765D01*
X125192191Y-110307809D01*
X125402235Y-110448157D01*
X125650000Y-110497440D01*
X127350000Y-110497440D01*
X127597765Y-110448157D01*
X127807809Y-110307809D01*
X127948157Y-110097765D01*
X127968739Y-109994292D01*
X128273076Y-110271645D01*
X128683110Y-110441476D01*
X128913000Y-110320155D01*
X128913000Y-109127000D01*
X129167000Y-109127000D01*
X129167000Y-110320155D01*
X129396890Y-110441476D01*
X129806924Y-110271645D01*
X130235183Y-109881358D01*
X130462701Y-109396890D01*
X131558524Y-109396890D01*
X131728355Y-109806924D01*
X132118642Y-110235183D01*
X132643108Y-110481486D01*
X132873000Y-110360819D01*
X132873000Y-109167000D01*
X133127000Y-109167000D01*
X133127000Y-110360819D01*
X133356892Y-110481486D01*
X133881358Y-110235183D01*
X134088629Y-110007745D01*
X135171861Y-110007745D01*
X135245995Y-110253864D01*
X135783223Y-110446965D01*
X136353454Y-110419778D01*
X136754005Y-110253864D01*
X136828139Y-110007745D01*
X136000000Y-109179605D01*
X135171861Y-110007745D01*
X134088629Y-110007745D01*
X134271645Y-109806924D01*
X134441476Y-109396890D01*
X134320155Y-109167000D01*
X133127000Y-109167000D01*
X132873000Y-109167000D01*
X131679845Y-109167000D01*
X131558524Y-109396890D01*
X130462701Y-109396890D01*
X130481486Y-109356892D01*
X130360819Y-109127000D01*
X129167000Y-109127000D01*
X128913000Y-109127000D01*
X128893000Y-109127000D01*
X128893000Y-108873000D01*
X128913000Y-108873000D01*
X128913000Y-107679845D01*
X129167000Y-107679845D01*
X129167000Y-108873000D01*
X130360819Y-108873000D01*
X130481486Y-108643108D01*
X130235183Y-108118642D01*
X129806924Y-107728355D01*
X129396890Y-107558524D01*
X129167000Y-107679845D01*
X128913000Y-107679845D01*
X128683110Y-107558524D01*
X128273076Y-107728355D01*
X127968739Y-108005708D01*
X127948157Y-107902235D01*
X127807809Y-107692191D01*
X127597765Y-107551843D01*
X127350000Y-107502560D01*
X125650000Y-107502560D01*
X125402235Y-107551843D01*
X125192191Y-107692191D01*
X125051843Y-107902235D01*
X125002560Y-108150000D01*
X123229422Y-108150000D01*
X123335000Y-107895113D01*
X123335000Y-107204887D01*
X123070862Y-106567201D01*
X122582799Y-106079138D01*
X121945113Y-105815000D01*
X121535000Y-105815000D01*
X121535000Y-105694670D01*
X121516498Y-105650000D01*
X131502560Y-105650000D01*
X131502560Y-107350000D01*
X131551843Y-107597765D01*
X131692191Y-107807809D01*
X131902235Y-107948157D01*
X132005708Y-107968739D01*
X131728355Y-108273076D01*
X131558524Y-108683110D01*
X131679845Y-108913000D01*
X132873000Y-108913000D01*
X132873000Y-108893000D01*
X133127000Y-108893000D01*
X133127000Y-108913000D01*
X134320155Y-108913000D01*
X134388642Y-108783223D01*
X134553035Y-108783223D01*
X134580222Y-109353454D01*
X134746136Y-109754005D01*
X134992255Y-109828139D01*
X135820395Y-109000000D01*
X136179605Y-109000000D01*
X137007745Y-109828139D01*
X137055307Y-109813813D01*
X137101843Y-110047765D01*
X137242191Y-110257809D01*
X137452235Y-110398157D01*
X137700000Y-110447440D01*
X139300000Y-110447440D01*
X139547765Y-110398157D01*
X139757809Y-110257809D01*
X139898157Y-110047765D01*
X139947440Y-109800000D01*
X139947440Y-108574670D01*
X140535000Y-108574670D01*
X140535000Y-109185330D01*
X140768690Y-109749507D01*
X141200493Y-110181310D01*
X141220115Y-110189438D01*
X141169446Y-110339841D01*
X142070000Y-111240395D01*
X142970554Y-110339841D01*
X142919885Y-110189438D01*
X142939507Y-110181310D01*
X143371310Y-109749507D01*
X143605000Y-109185330D01*
X143605000Y-108574670D01*
X163395000Y-108574670D01*
X163395000Y-109185330D01*
X163628690Y-109749507D01*
X164029183Y-110150000D01*
X163628690Y-110550493D01*
X163395000Y-111114670D01*
X163395000Y-111725330D01*
X163628690Y-112289507D01*
X164029183Y-112690000D01*
X163628690Y-113090493D01*
X163395000Y-113654670D01*
X163395000Y-114265330D01*
X163628690Y-114829507D01*
X164029183Y-115230000D01*
X163628690Y-115630493D01*
X163395000Y-116194670D01*
X163395000Y-116805330D01*
X163628690Y-117369507D01*
X164029183Y-117770000D01*
X163628690Y-118170493D01*
X163395000Y-118734670D01*
X163395000Y-119345330D01*
X163628690Y-119909507D01*
X164029183Y-120310000D01*
X163628690Y-120710493D01*
X163395000Y-121274670D01*
X163395000Y-121885330D01*
X163628690Y-122449507D01*
X164029183Y-122850000D01*
X163628690Y-123250493D01*
X163395000Y-123814670D01*
X163395000Y-124425330D01*
X163628690Y-124989507D01*
X164029183Y-125390000D01*
X163628690Y-125790493D01*
X163395000Y-126354670D01*
X163395000Y-126965330D01*
X163628690Y-127529507D01*
X164060493Y-127961310D01*
X164624670Y-128195000D01*
X165235330Y-128195000D01*
X165799507Y-127961310D01*
X166231310Y-127529507D01*
X166465000Y-126965330D01*
X166465000Y-126354670D01*
X166231310Y-125790493D01*
X165830817Y-125390000D01*
X166231310Y-124989507D01*
X166465000Y-124425330D01*
X166465000Y-123814670D01*
X166423534Y-123714561D01*
X166565000Y-123714561D01*
X166565000Y-124285439D01*
X166783466Y-124812862D01*
X167187138Y-125216534D01*
X167714561Y-125435000D01*
X168285439Y-125435000D01*
X168812862Y-125216534D01*
X168894396Y-125135000D01*
X169385380Y-125135000D01*
X169352560Y-125300000D01*
X169352560Y-126700000D01*
X169401843Y-126947765D01*
X169542191Y-127157809D01*
X169752235Y-127298157D01*
X170000000Y-127347440D01*
X171325000Y-127347440D01*
X171572765Y-127298157D01*
X171606050Y-127275916D01*
X171748691Y-127335000D01*
X172251750Y-127335000D01*
X172410500Y-127176250D01*
X172410500Y-126127000D01*
X172664500Y-126127000D01*
X172664500Y-127176250D01*
X172823250Y-127335000D01*
X173326309Y-127335000D01*
X173559698Y-127238327D01*
X173738327Y-127059699D01*
X173835000Y-126826310D01*
X173835000Y-126285750D01*
X173676250Y-126127000D01*
X172664500Y-126127000D01*
X172410500Y-126127000D01*
X172390500Y-126127000D01*
X172390500Y-125873000D01*
X172410500Y-125873000D01*
X172410500Y-125331250D01*
X172515500Y-125226250D01*
X172515500Y-124823750D01*
X172664500Y-124823750D01*
X172664500Y-125873000D01*
X173676250Y-125873000D01*
X173835000Y-125714250D01*
X173835000Y-125173690D01*
X173780911Y-125043107D01*
X173850000Y-124876310D01*
X173850000Y-124285750D01*
X173691250Y-124127000D01*
X172769500Y-124127000D01*
X172769500Y-124718750D01*
X172664500Y-124823750D01*
X172515500Y-124823750D01*
X172515500Y-124127000D01*
X172495500Y-124127000D01*
X172495500Y-123873000D01*
X172515500Y-123873000D01*
X172515500Y-122773750D01*
X172769500Y-122773750D01*
X172769500Y-123873000D01*
X173691250Y-123873000D01*
X173850000Y-123714250D01*
X173850000Y-123123690D01*
X173753327Y-122890301D01*
X173574698Y-122711673D01*
X173341309Y-122615000D01*
X172928250Y-122615000D01*
X172769500Y-122773750D01*
X172515500Y-122773750D01*
X172356750Y-122615000D01*
X171943691Y-122615000D01*
X171710302Y-122711673D01*
X171604622Y-122817353D01*
X171587809Y-122792191D01*
X171377765Y-122651843D01*
X171130000Y-122602560D01*
X169985000Y-122602560D01*
X169737235Y-122651843D01*
X169527191Y-122792191D01*
X169478541Y-122865000D01*
X168894396Y-122865000D01*
X168812862Y-122783466D01*
X168285439Y-122565000D01*
X167714561Y-122565000D01*
X167187138Y-122783466D01*
X166783466Y-123187138D01*
X166565000Y-123714561D01*
X166423534Y-123714561D01*
X166231310Y-123250493D01*
X165830817Y-122850000D01*
X166231310Y-122449507D01*
X166465000Y-121885330D01*
X166465000Y-121274670D01*
X166231310Y-120710493D01*
X165830817Y-120310000D01*
X166231310Y-119909507D01*
X166465000Y-119345330D01*
X166465000Y-118734670D01*
X166231310Y-118170493D01*
X165830817Y-117770000D01*
X166231310Y-117369507D01*
X166394361Y-116975866D01*
X171365000Y-116975866D01*
X171365000Y-118024134D01*
X171766155Y-118992608D01*
X172507392Y-119733845D01*
X173475866Y-120135000D01*
X174524134Y-120135000D01*
X175492608Y-119733845D01*
X176233845Y-118992608D01*
X176635000Y-118024134D01*
X176635000Y-116975866D01*
X176233845Y-116007392D01*
X175492608Y-115266155D01*
X174524134Y-114865000D01*
X173475866Y-114865000D01*
X172507392Y-115266155D01*
X171766155Y-116007392D01*
X171365000Y-116975866D01*
X166394361Y-116975866D01*
X166465000Y-116805330D01*
X166465000Y-116194670D01*
X166231310Y-115630493D01*
X165830817Y-115230000D01*
X166231310Y-114829507D01*
X166465000Y-114265330D01*
X166465000Y-113654670D01*
X166231310Y-113090493D01*
X165830817Y-112690000D01*
X166231310Y-112289507D01*
X166465000Y-111725330D01*
X166465000Y-111114670D01*
X166231310Y-110550493D01*
X165830817Y-110150000D01*
X166231310Y-109749507D01*
X166465000Y-109185330D01*
X166465000Y-108574670D01*
X166231310Y-108010493D01*
X165799507Y-107578690D01*
X165235330Y-107345000D01*
X164624670Y-107345000D01*
X164060493Y-107578690D01*
X163628690Y-108010493D01*
X163395000Y-108574670D01*
X143605000Y-108574670D01*
X143371310Y-108010493D01*
X142939507Y-107578690D01*
X142375330Y-107345000D01*
X141764670Y-107345000D01*
X141200493Y-107578690D01*
X140768690Y-108010493D01*
X140535000Y-108574670D01*
X139947440Y-108574670D01*
X139947440Y-108200000D01*
X139898157Y-107952235D01*
X139757809Y-107742191D01*
X139547765Y-107601843D01*
X139300000Y-107552560D01*
X137700000Y-107552560D01*
X137452235Y-107601843D01*
X137242191Y-107742191D01*
X137101843Y-107952235D01*
X137055307Y-108186187D01*
X137007745Y-108171861D01*
X136179605Y-109000000D01*
X135820395Y-109000000D01*
X134992255Y-108171861D01*
X134746136Y-108245995D01*
X134553035Y-108783223D01*
X134388642Y-108783223D01*
X134441476Y-108683110D01*
X134271645Y-108273076D01*
X134015723Y-107992255D01*
X135171861Y-107992255D01*
X136000000Y-108820395D01*
X136828139Y-107992255D01*
X136754005Y-107746136D01*
X136216777Y-107553035D01*
X135646546Y-107580222D01*
X135245995Y-107746136D01*
X135171861Y-107992255D01*
X134015723Y-107992255D01*
X133994292Y-107968739D01*
X134097765Y-107948157D01*
X134307809Y-107807809D01*
X134448157Y-107597765D01*
X134497440Y-107350000D01*
X134497440Y-107075322D01*
X168665000Y-107075322D01*
X168665000Y-107924678D01*
X168990034Y-108709380D01*
X169590620Y-109309966D01*
X170375322Y-109635000D01*
X171224678Y-109635000D01*
X172009380Y-109309966D01*
X172609966Y-108709380D01*
X172935000Y-107924678D01*
X172935000Y-107075322D01*
X172609966Y-106290620D01*
X172009380Y-105690034D01*
X171224678Y-105365000D01*
X170375322Y-105365000D01*
X169590620Y-105690034D01*
X168990034Y-106290620D01*
X168665000Y-107075322D01*
X134497440Y-107075322D01*
X134497440Y-105650000D01*
X134448157Y-105402235D01*
X134307809Y-105192191D01*
X134097765Y-105051843D01*
X133850000Y-105002560D01*
X132150000Y-105002560D01*
X131902235Y-105051843D01*
X131692191Y-105192191D01*
X131551843Y-105402235D01*
X131502560Y-105650000D01*
X121516498Y-105650000D01*
X121301310Y-105130493D01*
X121170817Y-105000000D01*
X121301310Y-104869507D01*
X121535000Y-104305330D01*
X121535000Y-103694670D01*
X121531306Y-103685750D01*
X132325000Y-103685750D01*
X132325000Y-104276310D01*
X132421673Y-104509699D01*
X132600302Y-104688327D01*
X132833691Y-104785000D01*
X133159250Y-104785000D01*
X133318000Y-104626250D01*
X133318000Y-103527000D01*
X132483750Y-103527000D01*
X132325000Y-103685750D01*
X121531306Y-103685750D01*
X121301310Y-103130493D01*
X120869507Y-102698690D01*
X120305330Y-102465000D01*
X119694670Y-102465000D01*
X119130493Y-102698690D01*
X119000000Y-102829183D01*
X118869507Y-102698690D01*
X118305330Y-102465000D01*
X117694670Y-102465000D01*
X117130493Y-102698690D01*
X117000000Y-102829183D01*
X116869507Y-102698690D01*
X116305330Y-102465000D01*
X115694670Y-102465000D01*
X115130493Y-102698690D01*
X115000000Y-102829183D01*
X114869507Y-102698690D01*
X114305330Y-102465000D01*
X113694670Y-102465000D01*
X113130493Y-102698690D01*
X113000000Y-102829183D01*
X112869507Y-102698690D01*
X112305330Y-102465000D01*
X111694670Y-102465000D01*
X111130493Y-102698690D01*
X111000000Y-102829183D01*
X110869507Y-102698690D01*
X110305330Y-102465000D01*
X110135000Y-102465000D01*
X110135000Y-102104887D01*
X109878546Y-101485750D01*
X132325000Y-101485750D01*
X132325000Y-102076310D01*
X132417656Y-102300000D01*
X132325000Y-102523690D01*
X132325000Y-103114250D01*
X132483750Y-103273000D01*
X133318000Y-103273000D01*
X133318000Y-101327000D01*
X132483750Y-101327000D01*
X132325000Y-101485750D01*
X109878546Y-101485750D01*
X109870862Y-101467201D01*
X109382799Y-100979138D01*
X108793397Y-100735000D01*
X132325000Y-100735000D01*
X132325000Y-100914250D01*
X132483750Y-101073000D01*
X133318000Y-101073000D01*
X133318000Y-101053000D01*
X133572000Y-101053000D01*
X133572000Y-101073000D01*
X133592000Y-101073000D01*
X133592000Y-101327000D01*
X133572000Y-101327000D01*
X133572000Y-103273000D01*
X133592000Y-103273000D01*
X133592000Y-103527000D01*
X133572000Y-103527000D01*
X133572000Y-104626250D01*
X133730750Y-104785000D01*
X134056309Y-104785000D01*
X134289698Y-104688327D01*
X134395378Y-104582647D01*
X134412191Y-104607809D01*
X134622235Y-104748157D01*
X134870000Y-104797440D01*
X135840000Y-104797440D01*
X136087765Y-104748157D01*
X136297809Y-104607809D01*
X136346459Y-104535000D01*
X137705604Y-104535000D01*
X137787138Y-104616534D01*
X138314561Y-104835000D01*
X138885439Y-104835000D01*
X139412862Y-104616534D01*
X139816534Y-104212862D01*
X140035000Y-103685439D01*
X140035000Y-103114561D01*
X139816534Y-102587138D01*
X139529396Y-102300000D01*
X139816534Y-102012862D01*
X140035000Y-101485439D01*
X140035000Y-100914561D01*
X139960623Y-100735000D01*
X162572388Y-100735000D01*
X162656904Y-100718189D01*
X164080004Y-100785301D01*
X164080004Y-100785301D01*
G37*
X164080004Y-100785301D02*
X165645984Y-101008172D01*
X167184041Y-101377428D01*
X168680527Y-101889788D01*
X170122140Y-102540702D01*
X171496109Y-103324400D01*
X172790227Y-104233921D01*
X173993008Y-105261194D01*
X175093769Y-106397090D01*
X176082759Y-107631553D01*
X176951179Y-108953596D01*
X177691334Y-110351505D01*
X178296643Y-111812851D01*
X178761747Y-113324693D01*
X179082508Y-114873590D01*
X179256082Y-116445799D01*
X179280927Y-118027360D01*
X179156824Y-119604239D01*
X178884871Y-121162455D01*
X178467487Y-122688157D01*
X177908376Y-124167801D01*
X177212497Y-125588264D01*
X176386026Y-126936943D01*
X175436312Y-128201844D01*
X174825607Y-128873000D01*
X140000000Y-128873000D01*
X139951399Y-128882667D01*
X139910197Y-128910197D01*
X139882667Y-128951399D01*
X139873000Y-129000000D01*
X139873000Y-134265000D01*
X135752925Y-134265000D01*
X136265190Y-133752735D01*
X136575000Y-133004787D01*
X136575000Y-132195213D01*
X136265190Y-131447265D01*
X135692735Y-130874810D01*
X134944787Y-130565000D01*
X134135213Y-130565000D01*
X133387265Y-130874810D01*
X132814810Y-131447265D01*
X132505000Y-132195213D01*
X132505000Y-133004787D01*
X132814810Y-133752735D01*
X133327075Y-134265000D01*
X129355272Y-134265000D01*
X129462118Y-134041724D01*
X128200000Y-132779605D01*
X126937882Y-134041724D01*
X127044728Y-134265000D01*
X120127000Y-134265000D01*
X120127000Y-132240031D01*
X126156595Y-132240031D01*
X126174386Y-133049409D01*
X126449894Y-133714545D01*
X126758276Y-133862118D01*
X128020395Y-132600000D01*
X128379605Y-132600000D01*
X129641724Y-133862118D01*
X129950106Y-133714545D01*
X130243405Y-132959969D01*
X130225614Y-132150591D01*
X129950106Y-131485455D01*
X129641724Y-131337882D01*
X128379605Y-132600000D01*
X128020395Y-132600000D01*
X126758276Y-131337882D01*
X126449894Y-131485455D01*
X126156595Y-132240031D01*
X120127000Y-132240031D01*
X120127000Y-131158276D01*
X126937882Y-131158276D01*
X128200000Y-132420395D01*
X129462118Y-131158276D01*
X129314545Y-130849894D01*
X128559969Y-130556595D01*
X127750591Y-130574386D01*
X127085455Y-130849894D01*
X126937882Y-131158276D01*
X120127000Y-131158276D01*
X120127000Y-123552608D01*
X120171861Y-123507747D01*
X120245995Y-123753864D01*
X120783223Y-123946965D01*
X121353454Y-123919778D01*
X121754005Y-123753864D01*
X121828139Y-123507745D01*
X121000000Y-122679605D01*
X120985858Y-122693748D01*
X120806252Y-122514142D01*
X120820395Y-122500000D01*
X121179605Y-122500000D01*
X122007745Y-123328139D01*
X122055307Y-123313813D01*
X122101843Y-123547765D01*
X122242191Y-123757809D01*
X122452235Y-123898157D01*
X122700000Y-123947440D01*
X124300000Y-123947440D01*
X124547765Y-123898157D01*
X124757809Y-123757809D01*
X124898157Y-123547765D01*
X124947440Y-123300000D01*
X124947440Y-121700000D01*
X124898157Y-121452235D01*
X124757809Y-121242191D01*
X124547765Y-121101843D01*
X124300000Y-121052560D01*
X122700000Y-121052560D01*
X122452235Y-121101843D01*
X122242191Y-121242191D01*
X122101843Y-121452235D01*
X122055307Y-121686187D01*
X122007745Y-121671861D01*
X121179605Y-122500000D01*
X120820395Y-122500000D01*
X120806252Y-122485858D01*
X120985858Y-122306252D01*
X121000000Y-122320395D01*
X121828139Y-121492255D01*
X121754005Y-121246136D01*
X121216777Y-121053035D01*
X120646546Y-121080222D01*
X120245995Y-121246136D01*
X120171861Y-121492253D01*
X120127000Y-121447392D01*
X120127000Y-119685750D01*
X121965000Y-119685750D01*
X121965000Y-120226310D01*
X122061673Y-120459699D01*
X122240302Y-120638327D01*
X122473691Y-120735000D01*
X122976750Y-120735000D01*
X123135500Y-120576250D01*
X123135500Y-119527000D01*
X122123750Y-119527000D01*
X121965000Y-119685750D01*
X120127000Y-119685750D01*
X120127000Y-119500000D01*
X120117333Y-119451399D01*
X120089803Y-119410197D01*
X120048601Y-119382667D01*
X120000000Y-119373000D01*
X100735000Y-119373000D01*
X100735000Y-118573690D01*
X121965000Y-118573690D01*
X121965000Y-119114250D01*
X122123750Y-119273000D01*
X123135500Y-119273000D01*
X123135500Y-118223750D01*
X122976750Y-118065000D01*
X122473691Y-118065000D01*
X122240302Y-118161673D01*
X122061673Y-118340301D01*
X121965000Y-118573690D01*
X100735000Y-118573690D01*
X100735000Y-115364740D01*
X109428964Y-115364740D01*
X109607760Y-115796417D01*
X110012424Y-116237966D01*
X110555258Y-116491046D01*
X110793000Y-116370997D01*
X110793000Y-115127000D01*
X109549622Y-115127000D01*
X109428964Y-115364740D01*
X100735000Y-115364740D01*
X100735000Y-114635260D01*
X109428964Y-114635260D01*
X109549622Y-114873000D01*
X110793000Y-114873000D01*
X110793000Y-113629003D01*
X111047000Y-113629003D01*
X111047000Y-114873000D01*
X111067000Y-114873000D01*
X111067000Y-115127000D01*
X111047000Y-115127000D01*
X111047000Y-116370997D01*
X111284742Y-116491046D01*
X111827576Y-116237966D01*
X112182376Y-115850826D01*
X112353327Y-116106673D01*
X112861073Y-116445938D01*
X113308818Y-116535000D01*
X113611182Y-116535000D01*
X114058927Y-116445938D01*
X114502871Y-116149304D01*
X114642191Y-116357809D01*
X114852235Y-116498157D01*
X115100000Y-116547440D01*
X116434224Y-116547440D01*
X116365000Y-116714561D01*
X116365000Y-117285439D01*
X116583466Y-117812862D01*
X116987138Y-118216534D01*
X117514561Y-118435000D01*
X118085439Y-118435000D01*
X118612862Y-118216534D01*
X119016534Y-117812862D01*
X119235000Y-117285439D01*
X119235000Y-116714561D01*
X119016534Y-116187138D01*
X118612862Y-115783466D01*
X118085439Y-115565000D01*
X117547440Y-115565000D01*
X117547440Y-114600000D01*
X118232969Y-114600000D01*
X118359864Y-115237945D01*
X118721231Y-115778769D01*
X119262055Y-116140136D01*
X119738969Y-116235000D01*
X124205297Y-116235000D01*
X124068260Y-116440091D01*
X123956887Y-117000000D01*
X124068260Y-117559909D01*
X124385000Y-118033945D01*
X124385000Y-118070462D01*
X124227235Y-118101843D01*
X124193950Y-118124084D01*
X124051309Y-118065000D01*
X123548250Y-118065000D01*
X123389500Y-118223750D01*
X123389500Y-119273000D01*
X123409500Y-119273000D01*
X123409500Y-119527000D01*
X123389500Y-119527000D01*
X123389500Y-120576250D01*
X123548250Y-120735000D01*
X124051309Y-120735000D01*
X124193950Y-120675916D01*
X124227235Y-120698157D01*
X124475000Y-120747440D01*
X125800000Y-120747440D01*
X126047765Y-120698157D01*
X126257809Y-120557809D01*
X126398157Y-120347765D01*
X126447440Y-120100000D01*
X126447440Y-119362442D01*
X126455000Y-119324435D01*
X126455000Y-119324434D01*
X126475276Y-119222500D01*
X126455000Y-119120566D01*
X126455000Y-118033944D01*
X126771740Y-117559909D01*
X126883113Y-117000000D01*
X126771740Y-116440091D01*
X126454577Y-115965423D01*
X126326999Y-115880178D01*
X126478769Y-115778769D01*
X126569988Y-115642250D01*
X126769985Y-115442253D01*
X126951970Y-115169895D01*
X127047265Y-115265190D01*
X127795213Y-115575000D01*
X128604787Y-115575000D01*
X129352735Y-115265190D01*
X129925190Y-114692735D01*
X130235000Y-113944787D01*
X130235000Y-113135213D01*
X135685000Y-113135213D01*
X135685000Y-113944787D01*
X135994810Y-114692735D01*
X136567265Y-115265190D01*
X137315213Y-115575000D01*
X138124787Y-115575000D01*
X138872735Y-115265190D01*
X139445190Y-114692735D01*
X139755000Y-113944787D01*
X139755000Y-113654670D01*
X140535000Y-113654670D01*
X140535000Y-114265330D01*
X140768690Y-114829507D01*
X141169183Y-115230000D01*
X140768690Y-115630493D01*
X140535000Y-116194670D01*
X140535000Y-116805330D01*
X140768690Y-117369507D01*
X141169183Y-117770000D01*
X140768690Y-118170493D01*
X140535000Y-118734670D01*
X140535000Y-119345330D01*
X140768690Y-119909507D01*
X141169183Y-120310000D01*
X140768690Y-120710493D01*
X140535000Y-121274670D01*
X140535000Y-121885330D01*
X140768690Y-122449507D01*
X141169183Y-122850000D01*
X140768690Y-123250493D01*
X140535000Y-123814670D01*
X140535000Y-124425330D01*
X140768690Y-124989507D01*
X141169183Y-125390000D01*
X140768690Y-125790493D01*
X140535000Y-126354670D01*
X140535000Y-126965330D01*
X140768690Y-127529507D01*
X141200493Y-127961310D01*
X141764670Y-128195000D01*
X142375330Y-128195000D01*
X142939507Y-127961310D01*
X143371310Y-127529507D01*
X143605000Y-126965330D01*
X143605000Y-126354670D01*
X143371310Y-125790493D01*
X142970817Y-125390000D01*
X143371310Y-124989507D01*
X143605000Y-124425330D01*
X143605000Y-123814670D01*
X143371310Y-123250493D01*
X142970817Y-122850000D01*
X143371310Y-122449507D01*
X143605000Y-121885330D01*
X143605000Y-121274670D01*
X143371310Y-120710493D01*
X142970817Y-120310000D01*
X143371310Y-119909507D01*
X143605000Y-119345330D01*
X143605000Y-118734670D01*
X143371310Y-118170493D01*
X142970817Y-117770000D01*
X143371310Y-117369507D01*
X143605000Y-116805330D01*
X143605000Y-116194670D01*
X143371310Y-115630493D01*
X142970817Y-115230000D01*
X143371310Y-114829507D01*
X143605000Y-114265330D01*
X143605000Y-113654670D01*
X143371310Y-113090493D01*
X142939507Y-112658690D01*
X142919885Y-112650562D01*
X142970554Y-112500159D01*
X142070000Y-111599605D01*
X141169446Y-112500159D01*
X141220115Y-112650562D01*
X141200493Y-112658690D01*
X140768690Y-113090493D01*
X140535000Y-113654670D01*
X139755000Y-113654670D01*
X139755000Y-113135213D01*
X139445190Y-112387265D01*
X138872735Y-111814810D01*
X138124787Y-111505000D01*
X137315213Y-111505000D01*
X136567265Y-111814810D01*
X135994810Y-112387265D01*
X135685000Y-113135213D01*
X130235000Y-113135213D01*
X129925190Y-112387265D01*
X129352735Y-111814810D01*
X128604787Y-111505000D01*
X127795213Y-111505000D01*
X127047265Y-111814810D01*
X126474810Y-112387265D01*
X126248465Y-112933711D01*
X126137945Y-112859864D01*
X125500000Y-112732969D01*
X124862055Y-112859864D01*
X124704708Y-112965000D01*
X119738969Y-112965000D01*
X119262055Y-113059864D01*
X118721231Y-113421231D01*
X118359864Y-113962055D01*
X118232969Y-114600000D01*
X117547440Y-114600000D01*
X117547440Y-114100000D01*
X117498157Y-113852235D01*
X117357809Y-113642191D01*
X117147765Y-113501843D01*
X116900000Y-113452560D01*
X115100000Y-113452560D01*
X114852235Y-113501843D01*
X114642191Y-113642191D01*
X114502871Y-113850696D01*
X114058927Y-113554062D01*
X113611182Y-113465000D01*
X113308818Y-113465000D01*
X112861073Y-113554062D01*
X112353327Y-113893327D01*
X112182376Y-114149174D01*
X111827576Y-113762034D01*
X111284742Y-113508954D01*
X111047000Y-113629003D01*
X110793000Y-113629003D01*
X110555258Y-113508954D01*
X110012424Y-113762034D01*
X109607760Y-114203583D01*
X109428964Y-114635260D01*
X100735000Y-114635260D01*
X100735000Y-111674778D01*
X102365000Y-111674778D01*
X102365000Y-112325222D01*
X102613914Y-112926153D01*
X103073847Y-113386086D01*
X103674778Y-113635000D01*
X104325222Y-113635000D01*
X104926153Y-113386086D01*
X105386086Y-112926153D01*
X105635000Y-112325222D01*
X105635000Y-111674778D01*
X105386086Y-111073847D01*
X104926153Y-110613914D01*
X104325222Y-110365000D01*
X103674778Y-110365000D01*
X103073847Y-110613914D01*
X102613914Y-111073847D01*
X102365000Y-111674778D01*
X100735000Y-111674778D01*
X100735000Y-110150000D01*
X109502560Y-110150000D01*
X109502560Y-111850000D01*
X109551843Y-112097765D01*
X109692191Y-112307809D01*
X109902235Y-112448157D01*
X110150000Y-112497440D01*
X111850000Y-112497440D01*
X112097765Y-112448157D01*
X112307809Y-112307809D01*
X112448157Y-112097765D01*
X112457184Y-112052381D01*
X112469375Y-112070625D01*
X112960582Y-112398839D01*
X113393744Y-112485000D01*
X113686256Y-112485000D01*
X114119418Y-112398839D01*
X114610625Y-112070625D01*
X114938839Y-111579418D01*
X115018419Y-111179336D01*
X140523542Y-111179336D01*
X140549161Y-111789460D01*
X140733357Y-112234148D01*
X140989841Y-112320554D01*
X141890395Y-111420000D01*
X142249605Y-111420000D01*
X143150159Y-112320554D01*
X143406643Y-112234148D01*
X143616458Y-111660664D01*
X143590839Y-111050540D01*
X143406643Y-110605852D01*
X143150159Y-110519446D01*
X142249605Y-111420000D01*
X141890395Y-111420000D01*
X140989841Y-110519446D01*
X140733357Y-110605852D01*
X140523542Y-111179336D01*
X115018419Y-111179336D01*
X115054092Y-111000000D01*
X114938839Y-110420582D01*
X114610625Y-109929375D01*
X114119418Y-109601161D01*
X113686256Y-109515000D01*
X113393744Y-109515000D01*
X112960582Y-109601161D01*
X112469375Y-109929375D01*
X112457184Y-109947619D01*
X112448157Y-109902235D01*
X112307809Y-109692191D01*
X112097765Y-109551843D01*
X111850000Y-109502560D01*
X110150000Y-109502560D01*
X109902235Y-109551843D01*
X109692191Y-109692191D01*
X109551843Y-109902235D01*
X109502560Y-110150000D01*
X100735000Y-110150000D01*
X100735000Y-103475866D01*
X101365000Y-103475866D01*
X101365000Y-104524134D01*
X101766155Y-105492608D01*
X102507392Y-106233845D01*
X103475866Y-106635000D01*
X104524134Y-106635000D01*
X105492608Y-106233845D01*
X106233845Y-105492608D01*
X106635000Y-104524134D01*
X106635000Y-103475866D01*
X106233845Y-102507392D01*
X105492608Y-101766155D01*
X104524134Y-101365000D01*
X103475866Y-101365000D01*
X102507392Y-101766155D01*
X101766155Y-102507392D01*
X101365000Y-103475866D01*
X100735000Y-103475866D01*
X100735000Y-100735000D01*
X108006603Y-100735000D01*
X107417201Y-100979138D01*
X106929138Y-101467201D01*
X106665000Y-102104887D01*
X106665000Y-102795113D01*
X106929138Y-103432799D01*
X107417201Y-103920862D01*
X108054887Y-104185000D01*
X108465000Y-104185000D01*
X108465000Y-104305330D01*
X108698690Y-104869507D01*
X108829183Y-105000000D01*
X108698690Y-105130493D01*
X108465000Y-105694670D01*
X108465000Y-106305330D01*
X108698690Y-106869507D01*
X109130493Y-107301310D01*
X109694670Y-107535000D01*
X110305330Y-107535000D01*
X110869507Y-107301310D01*
X111000000Y-107170817D01*
X111130493Y-107301310D01*
X111694670Y-107535000D01*
X112305330Y-107535000D01*
X112869507Y-107301310D01*
X113000000Y-107170817D01*
X113130493Y-107301310D01*
X113694670Y-107535000D01*
X114305330Y-107535000D01*
X114869507Y-107301310D01*
X115000000Y-107170817D01*
X115130493Y-107301310D01*
X115694670Y-107535000D01*
X116305330Y-107535000D01*
X116869507Y-107301310D01*
X117000000Y-107170817D01*
X117130493Y-107301310D01*
X117694670Y-107535000D01*
X118305330Y-107535000D01*
X118869507Y-107301310D01*
X119000000Y-107170817D01*
X119130493Y-107301310D01*
X119694670Y-107535000D01*
X119865000Y-107535000D01*
X119865000Y-107895113D01*
X120129138Y-108532799D01*
X120617201Y-109020862D01*
X121254887Y-109285000D01*
X121945113Y-109285000D01*
X122582799Y-109020862D01*
X123070862Y-108532799D01*
X123229422Y-108150000D01*
X125002560Y-108150000D01*
X125002560Y-109850000D01*
X125051843Y-110097765D01*
X125192191Y-110307809D01*
X125402235Y-110448157D01*
X125650000Y-110497440D01*
X127350000Y-110497440D01*
X127597765Y-110448157D01*
X127807809Y-110307809D01*
X127948157Y-110097765D01*
X127968739Y-109994292D01*
X128273076Y-110271645D01*
X128683110Y-110441476D01*
X128913000Y-110320155D01*
X128913000Y-109127000D01*
X129167000Y-109127000D01*
X129167000Y-110320155D01*
X129396890Y-110441476D01*
X129806924Y-110271645D01*
X130235183Y-109881358D01*
X130462701Y-109396890D01*
X131558524Y-109396890D01*
X131728355Y-109806924D01*
X132118642Y-110235183D01*
X132643108Y-110481486D01*
X132873000Y-110360819D01*
X132873000Y-109167000D01*
X133127000Y-109167000D01*
X133127000Y-110360819D01*
X133356892Y-110481486D01*
X133881358Y-110235183D01*
X134088629Y-110007745D01*
X135171861Y-110007745D01*
X135245995Y-110253864D01*
X135783223Y-110446965D01*
X136353454Y-110419778D01*
X136754005Y-110253864D01*
X136828139Y-110007745D01*
X136000000Y-109179605D01*
X135171861Y-110007745D01*
X134088629Y-110007745D01*
X134271645Y-109806924D01*
X134441476Y-109396890D01*
X134320155Y-109167000D01*
X133127000Y-109167000D01*
X132873000Y-109167000D01*
X131679845Y-109167000D01*
X131558524Y-109396890D01*
X130462701Y-109396890D01*
X130481486Y-109356892D01*
X130360819Y-109127000D01*
X129167000Y-109127000D01*
X128913000Y-109127000D01*
X128893000Y-109127000D01*
X128893000Y-108873000D01*
X128913000Y-108873000D01*
X128913000Y-107679845D01*
X129167000Y-107679845D01*
X129167000Y-108873000D01*
X130360819Y-108873000D01*
X130481486Y-108643108D01*
X130235183Y-108118642D01*
X129806924Y-107728355D01*
X129396890Y-107558524D01*
X129167000Y-107679845D01*
X128913000Y-107679845D01*
X128683110Y-107558524D01*
X128273076Y-107728355D01*
X127968739Y-108005708D01*
X127948157Y-107902235D01*
X127807809Y-107692191D01*
X127597765Y-107551843D01*
X127350000Y-107502560D01*
X125650000Y-107502560D01*
X125402235Y-107551843D01*
X125192191Y-107692191D01*
X125051843Y-107902235D01*
X125002560Y-108150000D01*
X123229422Y-108150000D01*
X123335000Y-107895113D01*
X123335000Y-107204887D01*
X123070862Y-106567201D01*
X122582799Y-106079138D01*
X121945113Y-105815000D01*
X121535000Y-105815000D01*
X121535000Y-105694670D01*
X121516498Y-105650000D01*
X131502560Y-105650000D01*
X131502560Y-107350000D01*
X131551843Y-107597765D01*
X131692191Y-107807809D01*
X131902235Y-107948157D01*
X132005708Y-107968739D01*
X131728355Y-108273076D01*
X131558524Y-108683110D01*
X131679845Y-108913000D01*
X132873000Y-108913000D01*
X132873000Y-108893000D01*
X133127000Y-108893000D01*
X133127000Y-108913000D01*
X134320155Y-108913000D01*
X134388642Y-108783223D01*
X134553035Y-108783223D01*
X134580222Y-109353454D01*
X134746136Y-109754005D01*
X134992255Y-109828139D01*
X135820395Y-109000000D01*
X136179605Y-109000000D01*
X137007745Y-109828139D01*
X137055307Y-109813813D01*
X137101843Y-110047765D01*
X137242191Y-110257809D01*
X137452235Y-110398157D01*
X137700000Y-110447440D01*
X139300000Y-110447440D01*
X139547765Y-110398157D01*
X139757809Y-110257809D01*
X139898157Y-110047765D01*
X139947440Y-109800000D01*
X139947440Y-108574670D01*
X140535000Y-108574670D01*
X140535000Y-109185330D01*
X140768690Y-109749507D01*
X141200493Y-110181310D01*
X141220115Y-110189438D01*
X141169446Y-110339841D01*
X142070000Y-111240395D01*
X142970554Y-110339841D01*
X142919885Y-110189438D01*
X142939507Y-110181310D01*
X143371310Y-109749507D01*
X143605000Y-109185330D01*
X143605000Y-108574670D01*
X163395000Y-108574670D01*
X163395000Y-109185330D01*
X163628690Y-109749507D01*
X164029183Y-110150000D01*
X163628690Y-110550493D01*
X163395000Y-111114670D01*
X163395000Y-111725330D01*
X163628690Y-112289507D01*
X164029183Y-112690000D01*
X163628690Y-113090493D01*
X163395000Y-113654670D01*
X163395000Y-114265330D01*
X163628690Y-114829507D01*
X164029183Y-115230000D01*
X163628690Y-115630493D01*
X163395000Y-116194670D01*
X163395000Y-116805330D01*
X163628690Y-117369507D01*
X164029183Y-117770000D01*
X163628690Y-118170493D01*
X163395000Y-118734670D01*
X163395000Y-119345330D01*
X163628690Y-119909507D01*
X164029183Y-120310000D01*
X163628690Y-120710493D01*
X163395000Y-121274670D01*
X163395000Y-121885330D01*
X163628690Y-122449507D01*
X164029183Y-122850000D01*
X163628690Y-123250493D01*
X163395000Y-123814670D01*
X163395000Y-124425330D01*
X163628690Y-124989507D01*
X164029183Y-125390000D01*
X163628690Y-125790493D01*
X163395000Y-126354670D01*
X163395000Y-126965330D01*
X163628690Y-127529507D01*
X164060493Y-127961310D01*
X164624670Y-128195000D01*
X165235330Y-128195000D01*
X165799507Y-127961310D01*
X166231310Y-127529507D01*
X166465000Y-126965330D01*
X166465000Y-126354670D01*
X166231310Y-125790493D01*
X165830817Y-125390000D01*
X166231310Y-124989507D01*
X166465000Y-124425330D01*
X166465000Y-123814670D01*
X166423534Y-123714561D01*
X166565000Y-123714561D01*
X166565000Y-124285439D01*
X166783466Y-124812862D01*
X167187138Y-125216534D01*
X167714561Y-125435000D01*
X168285439Y-125435000D01*
X168812862Y-125216534D01*
X168894396Y-125135000D01*
X169385380Y-125135000D01*
X169352560Y-125300000D01*
X169352560Y-126700000D01*
X169401843Y-126947765D01*
X169542191Y-127157809D01*
X169752235Y-127298157D01*
X170000000Y-127347440D01*
X171325000Y-127347440D01*
X171572765Y-127298157D01*
X171606050Y-127275916D01*
X171748691Y-127335000D01*
X172251750Y-127335000D01*
X172410500Y-127176250D01*
X172410500Y-126127000D01*
X172664500Y-126127000D01*
X172664500Y-127176250D01*
X172823250Y-127335000D01*
X173326309Y-127335000D01*
X173559698Y-127238327D01*
X173738327Y-127059699D01*
X173835000Y-126826310D01*
X173835000Y-126285750D01*
X173676250Y-126127000D01*
X172664500Y-126127000D01*
X172410500Y-126127000D01*
X172390500Y-126127000D01*
X172390500Y-125873000D01*
X172410500Y-125873000D01*
X172410500Y-125331250D01*
X172515500Y-125226250D01*
X172515500Y-124823750D01*
X172664500Y-124823750D01*
X172664500Y-125873000D01*
X173676250Y-125873000D01*
X173835000Y-125714250D01*
X173835000Y-125173690D01*
X173780911Y-125043107D01*
X173850000Y-124876310D01*
X173850000Y-124285750D01*
X173691250Y-124127000D01*
X172769500Y-124127000D01*
X172769500Y-124718750D01*
X172664500Y-124823750D01*
X172515500Y-124823750D01*
X172515500Y-124127000D01*
X172495500Y-124127000D01*
X172495500Y-123873000D01*
X172515500Y-123873000D01*
X172515500Y-122773750D01*
X172769500Y-122773750D01*
X172769500Y-123873000D01*
X173691250Y-123873000D01*
X173850000Y-123714250D01*
X173850000Y-123123690D01*
X173753327Y-122890301D01*
X173574698Y-122711673D01*
X173341309Y-122615000D01*
X172928250Y-122615000D01*
X172769500Y-122773750D01*
X172515500Y-122773750D01*
X172356750Y-122615000D01*
X171943691Y-122615000D01*
X171710302Y-122711673D01*
X171604622Y-122817353D01*
X171587809Y-122792191D01*
X171377765Y-122651843D01*
X171130000Y-122602560D01*
X169985000Y-122602560D01*
X169737235Y-122651843D01*
X169527191Y-122792191D01*
X169478541Y-122865000D01*
X168894396Y-122865000D01*
X168812862Y-122783466D01*
X168285439Y-122565000D01*
X167714561Y-122565000D01*
X167187138Y-122783466D01*
X166783466Y-123187138D01*
X166565000Y-123714561D01*
X166423534Y-123714561D01*
X166231310Y-123250493D01*
X165830817Y-122850000D01*
X166231310Y-122449507D01*
X166465000Y-121885330D01*
X166465000Y-121274670D01*
X166231310Y-120710493D01*
X165830817Y-120310000D01*
X166231310Y-119909507D01*
X166465000Y-119345330D01*
X166465000Y-118734670D01*
X166231310Y-118170493D01*
X165830817Y-117770000D01*
X166231310Y-117369507D01*
X166394361Y-116975866D01*
X171365000Y-116975866D01*
X171365000Y-118024134D01*
X171766155Y-118992608D01*
X172507392Y-119733845D01*
X173475866Y-120135000D01*
X174524134Y-120135000D01*
X175492608Y-119733845D01*
X176233845Y-118992608D01*
X176635000Y-118024134D01*
X176635000Y-116975866D01*
X176233845Y-116007392D01*
X175492608Y-115266155D01*
X174524134Y-114865000D01*
X173475866Y-114865000D01*
X172507392Y-115266155D01*
X171766155Y-116007392D01*
X171365000Y-116975866D01*
X166394361Y-116975866D01*
X166465000Y-116805330D01*
X166465000Y-116194670D01*
X166231310Y-115630493D01*
X165830817Y-115230000D01*
X166231310Y-114829507D01*
X166465000Y-114265330D01*
X166465000Y-113654670D01*
X166231310Y-113090493D01*
X165830817Y-112690000D01*
X166231310Y-112289507D01*
X166465000Y-111725330D01*
X166465000Y-111114670D01*
X166231310Y-110550493D01*
X165830817Y-110150000D01*
X166231310Y-109749507D01*
X166465000Y-109185330D01*
X166465000Y-108574670D01*
X166231310Y-108010493D01*
X165799507Y-107578690D01*
X165235330Y-107345000D01*
X164624670Y-107345000D01*
X164060493Y-107578690D01*
X163628690Y-108010493D01*
X163395000Y-108574670D01*
X143605000Y-108574670D01*
X143371310Y-108010493D01*
X142939507Y-107578690D01*
X142375330Y-107345000D01*
X141764670Y-107345000D01*
X141200493Y-107578690D01*
X140768690Y-108010493D01*
X140535000Y-108574670D01*
X139947440Y-108574670D01*
X139947440Y-108200000D01*
X139898157Y-107952235D01*
X139757809Y-107742191D01*
X139547765Y-107601843D01*
X139300000Y-107552560D01*
X137700000Y-107552560D01*
X137452235Y-107601843D01*
X137242191Y-107742191D01*
X137101843Y-107952235D01*
X137055307Y-108186187D01*
X137007745Y-108171861D01*
X136179605Y-109000000D01*
X135820395Y-109000000D01*
X134992255Y-108171861D01*
X134746136Y-108245995D01*
X134553035Y-108783223D01*
X134388642Y-108783223D01*
X134441476Y-108683110D01*
X134271645Y-108273076D01*
X134015723Y-107992255D01*
X135171861Y-107992255D01*
X136000000Y-108820395D01*
X136828139Y-107992255D01*
X136754005Y-107746136D01*
X136216777Y-107553035D01*
X135646546Y-107580222D01*
X135245995Y-107746136D01*
X135171861Y-107992255D01*
X134015723Y-107992255D01*
X133994292Y-107968739D01*
X134097765Y-107948157D01*
X134307809Y-107807809D01*
X134448157Y-107597765D01*
X134497440Y-107350000D01*
X134497440Y-107075322D01*
X168665000Y-107075322D01*
X168665000Y-107924678D01*
X168990034Y-108709380D01*
X169590620Y-109309966D01*
X170375322Y-109635000D01*
X171224678Y-109635000D01*
X172009380Y-109309966D01*
X172609966Y-108709380D01*
X172935000Y-107924678D01*
X172935000Y-107075322D01*
X172609966Y-106290620D01*
X172009380Y-105690034D01*
X171224678Y-105365000D01*
X170375322Y-105365000D01*
X169590620Y-105690034D01*
X168990034Y-106290620D01*
X168665000Y-107075322D01*
X134497440Y-107075322D01*
X134497440Y-105650000D01*
X134448157Y-105402235D01*
X134307809Y-105192191D01*
X134097765Y-105051843D01*
X133850000Y-105002560D01*
X132150000Y-105002560D01*
X131902235Y-105051843D01*
X131692191Y-105192191D01*
X131551843Y-105402235D01*
X131502560Y-105650000D01*
X121516498Y-105650000D01*
X121301310Y-105130493D01*
X121170817Y-105000000D01*
X121301310Y-104869507D01*
X121535000Y-104305330D01*
X121535000Y-103694670D01*
X121531306Y-103685750D01*
X132325000Y-103685750D01*
X132325000Y-104276310D01*
X132421673Y-104509699D01*
X132600302Y-104688327D01*
X132833691Y-104785000D01*
X133159250Y-104785000D01*
X133318000Y-104626250D01*
X133318000Y-103527000D01*
X132483750Y-103527000D01*
X132325000Y-103685750D01*
X121531306Y-103685750D01*
X121301310Y-103130493D01*
X120869507Y-102698690D01*
X120305330Y-102465000D01*
X119694670Y-102465000D01*
X119130493Y-102698690D01*
X119000000Y-102829183D01*
X118869507Y-102698690D01*
X118305330Y-102465000D01*
X117694670Y-102465000D01*
X117130493Y-102698690D01*
X117000000Y-102829183D01*
X116869507Y-102698690D01*
X116305330Y-102465000D01*
X115694670Y-102465000D01*
X115130493Y-102698690D01*
X115000000Y-102829183D01*
X114869507Y-102698690D01*
X114305330Y-102465000D01*
X113694670Y-102465000D01*
X113130493Y-102698690D01*
X113000000Y-102829183D01*
X112869507Y-102698690D01*
X112305330Y-102465000D01*
X111694670Y-102465000D01*
X111130493Y-102698690D01*
X111000000Y-102829183D01*
X110869507Y-102698690D01*
X110305330Y-102465000D01*
X110135000Y-102465000D01*
X110135000Y-102104887D01*
X109878546Y-101485750D01*
X132325000Y-101485750D01*
X132325000Y-102076310D01*
X132417656Y-102300000D01*
X132325000Y-102523690D01*
X132325000Y-103114250D01*
X132483750Y-103273000D01*
X133318000Y-103273000D01*
X133318000Y-101327000D01*
X132483750Y-101327000D01*
X132325000Y-101485750D01*
X109878546Y-101485750D01*
X109870862Y-101467201D01*
X109382799Y-100979138D01*
X108793397Y-100735000D01*
X132325000Y-100735000D01*
X132325000Y-100914250D01*
X132483750Y-101073000D01*
X133318000Y-101073000D01*
X133318000Y-101053000D01*
X133572000Y-101053000D01*
X133572000Y-101073000D01*
X133592000Y-101073000D01*
X133592000Y-101327000D01*
X133572000Y-101327000D01*
X133572000Y-103273000D01*
X133592000Y-103273000D01*
X133592000Y-103527000D01*
X133572000Y-103527000D01*
X133572000Y-104626250D01*
X133730750Y-104785000D01*
X134056309Y-104785000D01*
X134289698Y-104688327D01*
X134395378Y-104582647D01*
X134412191Y-104607809D01*
X134622235Y-104748157D01*
X134870000Y-104797440D01*
X135840000Y-104797440D01*
X136087765Y-104748157D01*
X136297809Y-104607809D01*
X136346459Y-104535000D01*
X137705604Y-104535000D01*
X137787138Y-104616534D01*
X138314561Y-104835000D01*
X138885439Y-104835000D01*
X139412862Y-104616534D01*
X139816534Y-104212862D01*
X140035000Y-103685439D01*
X140035000Y-103114561D01*
X139816534Y-102587138D01*
X139529396Y-102300000D01*
X139816534Y-102012862D01*
X140035000Y-101485439D01*
X140035000Y-100914561D01*
X139960623Y-100735000D01*
X162572388Y-100735000D01*
X162656904Y-100718189D01*
X164080004Y-100785301D01*
G04 #@! TD*
M02*
