G04 #@! TF.GenerationSoftware,KiCad,Pcbnew,5.0.0-rc2-unknown-0e3be57~65~ubuntu16.04.1*
G04 #@! TF.CreationDate,2018-06-11T16:33:48+03:00*
G04 #@! TF.ProjectId,cranklight,6372616E6B6C696768742E6B69636164,rev?*
G04 #@! TF.SameCoordinates,Original*
G04 #@! TF.FileFunction,Copper,L2,Bot,Signal*
G04 #@! TF.FilePolarity,Positive*
%FSLAX46Y46*%
G04 Gerber Fmt 4.6, Leading zero omitted, Abs format (unit mm)*
G04 Created by KiCad (PCBNEW 5.0.0-rc2-unknown-0e3be57~65~ubuntu16.04.1) date Mon Jun 11 16:33:48 2018*
%MOMM*%
%LPD*%
G01*
G04 APERTURE LIST*
G04 #@! TA.AperFunction,ComponentPad*
%ADD10C,2.000000*%
G04 #@! TD*
G04 #@! TA.AperFunction,SMDPad,CuDef*
%ADD11R,1.145000X1.500000*%
G04 #@! TD*
G04 #@! TA.AperFunction,ComponentPad*
%ADD12C,2.200000*%
G04 #@! TD*
G04 #@! TA.AperFunction,ComponentPad*
%ADD13C,1.800000*%
G04 #@! TD*
G04 #@! TA.AperFunction,SMDPad,CuDef*
%ADD14R,1.500000X1.145000*%
G04 #@! TD*
G04 #@! TA.AperFunction,ComponentPad*
%ADD15C,2.800000*%
G04 #@! TD*
G04 #@! TA.AperFunction,ComponentPad*
%ADD16O,1.600000X1.600000*%
G04 #@! TD*
G04 #@! TA.AperFunction,ComponentPad*
%ADD17C,1.600000*%
G04 #@! TD*
G04 #@! TA.AperFunction,ComponentPad*
%ADD18R,1.600000X1.600000*%
G04 #@! TD*
G04 #@! TA.AperFunction,ComponentPad*
%ADD19R,1.700000X1.700000*%
G04 #@! TD*
G04 #@! TA.AperFunction,ComponentPad*
%ADD20O,1.700000X1.700000*%
G04 #@! TD*
G04 #@! TA.AperFunction,ComponentPad*
%ADD21O,1.800000X1.800000*%
G04 #@! TD*
G04 #@! TA.AperFunction,ComponentPad*
%ADD22R,1.800000X1.800000*%
G04 #@! TD*
G04 #@! TA.AperFunction,ComponentPad*
%ADD23O,4.000000X4.000000*%
G04 #@! TD*
G04 #@! TA.AperFunction,ViaPad*
%ADD24C,1.600000*%
G04 #@! TD*
G04 #@! TA.AperFunction,Conductor*
%ADD25C,1.000000*%
G04 #@! TD*
G04 #@! TA.AperFunction,Conductor*
%ADD26C,0.800000*%
G04 #@! TD*
G04 #@! TA.AperFunction,Conductor*
%ADD27C,0.254000*%
G04 #@! TD*
G04 APERTURE END LIST*
D10*
G04 #@! TO.P,F1,2*
G04 #@! TO.N,Net-(F1-Pad2)*
X111600000Y-111000000D03*
G04 #@! TO.P,F1,1*
G04 #@! TO.N,Net-(F1-Pad1)*
X123000000Y-111000000D03*
G04 #@! TD*
D11*
G04 #@! TO.P,R5,2*
G04 #@! TO.N,Net-(R5-Pad2)*
X144557500Y-114000000D03*
G04 #@! TO.P,R5,1*
G04 #@! TO.N,Net-(D1-Pad2)*
X146642500Y-114000000D03*
G04 #@! TD*
G04 #@! TO.P,R6,1*
G04 #@! TO.N,Net-(D2-Pad2)*
X146642500Y-116400000D03*
G04 #@! TO.P,R6,2*
G04 #@! TO.N,Net-(R6-Pad2)*
X144557500Y-116400000D03*
G04 #@! TD*
D12*
G04 #@! TO.P,SW1,0*
G04 #@! TO.N,N/C*
X124600000Y-107550000D03*
X111400000Y-102450000D03*
D13*
G04 #@! TO.P,SW1,8*
G04 #@! TO.N,Net-(C4-Pad1)*
X115000000Y-106000000D03*
G04 #@! TO.P,SW1,1*
G04 #@! TO.N,Net-(SW1-Pad1)*
X123000000Y-104000000D03*
G04 #@! TO.P,SW1,7*
G04 #@! TO.N,+BATT*
X113000000Y-106000000D03*
G04 #@! TO.P,SW1,6*
G04 #@! TO.N,Net-(SW1-Pad6)*
X113000000Y-104000000D03*
G04 #@! TO.P,SW1,5*
G04 #@! TO.N,Net-(SW1-Pad5)*
X115000000Y-104000000D03*
G04 #@! TO.P,SW1,4*
G04 #@! TO.N,Net-(SW1-Pad4)*
X117000000Y-104000000D03*
G04 #@! TO.P,SW1,3*
G04 #@! TO.N,+BATT*
X119000000Y-104000000D03*
G04 #@! TO.P,SW1,2*
G04 #@! TO.N,VCC*
X121000000Y-104000000D03*
G04 #@! TO.P,SW1,9*
G04 #@! TO.N,+5V*
X117000000Y-106000000D03*
G04 #@! TO.P,SW1,10*
G04 #@! TO.N,GND*
X119000000Y-106000000D03*
G04 #@! TO.P,SW1,11*
G04 #@! TO.N,Net-(J2-Pad2)*
X121000000Y-106000000D03*
G04 #@! TO.P,SW1,12*
G04 #@! TO.N,Net-(F1-Pad1)*
X123000000Y-106000000D03*
G04 #@! TD*
D14*
G04 #@! TO.P,C2,1*
G04 #@! TO.N,+5V*
X144400000Y-108957500D03*
G04 #@! TO.P,C2,2*
G04 #@! TO.N,GND*
X144400000Y-111042500D03*
G04 #@! TD*
D15*
G04 #@! TO.P,U2,1*
G04 #@! TO.N,GND*
X128200000Y-132600000D03*
G04 #@! TO.P,U2,2*
G04 #@! TO.N,VCC*
X134540000Y-132600000D03*
G04 #@! TO.P,U2,3*
G04 #@! TO.N,Net-(U2-Pad3)*
X137720000Y-113540000D03*
G04 #@! TO.P,U2,4*
G04 #@! TO.N,+5V*
X128200000Y-113540000D03*
G04 #@! TD*
D16*
G04 #@! TO.P,R1,2*
G04 #@! TO.N,VCC*
X168000000Y-131620000D03*
D17*
G04 #@! TO.P,R1,1*
G04 #@! TO.N,Net-(C1-Pad1)*
X168000000Y-124000000D03*
G04 #@! TD*
G04 #@! TO.P,C5,2*
G04 #@! TO.N,GND*
X135900000Y-108400000D03*
D18*
G04 #@! TO.P,C5,1*
G04 #@! TO.N,+5V*
X138400000Y-108400000D03*
G04 #@! TD*
D16*
G04 #@! TO.P,R3,2*
G04 #@! TO.N,Net-(R3-Pad2)*
X125420000Y-117000000D03*
D17*
G04 #@! TO.P,R3,1*
G04 #@! TO.N,Net-(Q1-Pad1)*
X117800000Y-117000000D03*
G04 #@! TD*
G04 #@! TO.P,C3,2*
G04 #@! TO.N,GND*
X121100000Y-123400000D03*
D18*
G04 #@! TO.P,C3,1*
G04 #@! TO.N,VCC*
X123600000Y-123400000D03*
G04 #@! TD*
D19*
G04 #@! TO.P,J2,1*
G04 #@! TO.N,Net-(C4-Pad1)*
X119500000Y-113500000D03*
D20*
G04 #@! TO.P,J2,2*
G04 #@! TO.N,Net-(J2-Pad2)*
X122040000Y-113500000D03*
G04 #@! TD*
G04 #@! TO.P,J1,2*
G04 #@! TO.N,GND*
X129500000Y-106540000D03*
D19*
G04 #@! TO.P,J1,1*
G04 #@! TO.N,+BATT*
X129500000Y-104000000D03*
G04 #@! TD*
D21*
G04 #@! TO.P,Q1,3*
G04 #@! TO.N,GND*
X110920000Y-115000000D03*
G04 #@! TO.P,Q1,2*
G04 #@! TO.N,Net-(F1-Pad2)*
X113460000Y-115000000D03*
D22*
G04 #@! TO.P,Q1,1*
G04 #@! TO.N,Net-(Q1-Pad1)*
X116000000Y-115000000D03*
D23*
G04 #@! TO.P,Q1,0*
G04 #@! TO.N,Net-(F1-Pad2)*
X113460000Y-131660000D03*
G04 #@! TD*
D11*
G04 #@! TO.P,C4,1*
G04 #@! TO.N,Net-(C4-Pad1)*
X119757500Y-116000000D03*
G04 #@! TO.P,C4,2*
G04 #@! TO.N,GND*
X121842500Y-116000000D03*
G04 #@! TD*
D13*
G04 #@! TO.P,U1,8*
G04 #@! TO.N,Net-(U1-Pad8)*
X142070000Y-126660000D03*
G04 #@! TO.P,U1,7*
G04 #@! TO.N,Net-(U1-Pad7)*
X142070000Y-124120000D03*
G04 #@! TO.P,U1,6*
G04 #@! TO.N,Net-(U1-Pad6)*
X142070000Y-121580000D03*
G04 #@! TO.P,U1,5*
G04 #@! TO.N,Net-(U1-Pad5)*
X142070000Y-119040000D03*
G04 #@! TO.P,U1,4*
G04 #@! TO.N,Net-(R6-Pad2)*
X142070000Y-116500000D03*
G04 #@! TO.P,U1,3*
G04 #@! TO.N,Net-(R5-Pad2)*
X142070000Y-113960000D03*
G04 #@! TO.P,U1,2*
G04 #@! TO.N,GND*
X142070000Y-111420000D03*
G04 #@! TO.P,U1,1*
G04 #@! TO.N,+5V*
X142070000Y-108880000D03*
G04 #@! TO.P,U1,16*
G04 #@! TO.N,Net-(U1-Pad16)*
X164930000Y-108880000D03*
G04 #@! TO.P,U1,15*
G04 #@! TO.N,Net-(U1-Pad15)*
X164930000Y-111420000D03*
G04 #@! TO.P,U1,14*
G04 #@! TO.N,Net-(U1-Pad14)*
X164930000Y-113960000D03*
G04 #@! TO.P,U1,13*
G04 #@! TO.N,Net-(U1-Pad13)*
X164930000Y-116500000D03*
G04 #@! TO.P,U1,12*
G04 #@! TO.N,Net-(U1-Pad12)*
X164930000Y-119040000D03*
G04 #@! TO.P,U1,11*
G04 #@! TO.N,Net-(R3-Pad2)*
X164930000Y-121580000D03*
G04 #@! TO.P,U1,10*
G04 #@! TO.N,Net-(C1-Pad1)*
X164930000Y-124120000D03*
G04 #@! TO.P,U1,9*
G04 #@! TO.N,Net-(U1-Pad9)*
X164930000Y-126660000D03*
G04 #@! TD*
D24*
G04 #@! TO.N,GND*
X129600000Y-109000000D03*
X119400000Y-107800000D03*
X131800000Y-106600000D03*
X146200000Y-111000000D03*
G04 #@! TO.N,+5V*
X128200000Y-111000000D03*
X118600000Y-111000014D03*
G04 #@! TO.N,Net-(D2-Pad2)*
X138600000Y-101200000D03*
G04 #@! TO.N,Net-(D1-Pad2)*
X138600000Y-103400000D03*
G04 #@! TD*
D25*
G04 #@! TO.N,GND*
X144022500Y-111420000D02*
X144400000Y-111042500D01*
X142070000Y-111420000D02*
X144022500Y-111420000D01*
X119000000Y-107400000D02*
X119400000Y-107800000D01*
X119000000Y-106000000D02*
X119000000Y-107400000D01*
X129500000Y-106540000D02*
X131740000Y-106540000D01*
X131740000Y-106540000D02*
X131800000Y-106600000D01*
G04 #@! TO.N,Net-(F1-Pad1)*
X122749999Y-108618629D02*
X123000000Y-108868630D01*
X123000000Y-108868630D02*
X123000000Y-110000000D01*
X122749999Y-106250001D02*
X122749999Y-108618629D01*
X123000000Y-106000000D02*
X122749999Y-106250001D01*
G04 #@! TO.N,+BATT*
X119000000Y-102727208D02*
X120727208Y-101000000D01*
X119000000Y-104000000D02*
X119000000Y-102727208D01*
X127650000Y-104000000D02*
X129500000Y-104000000D01*
X124650000Y-101000000D02*
X127650000Y-104000000D01*
X120727208Y-101000000D02*
X124650000Y-101000000D01*
X119000000Y-102727208D02*
X117072792Y-100800000D01*
X117072792Y-100800000D02*
X112600000Y-100800000D01*
X111727208Y-106000000D02*
X109400000Y-103672792D01*
X113000000Y-106000000D02*
X111727208Y-106000000D01*
X109400000Y-103672792D02*
X109400000Y-101400000D01*
X109400000Y-101400000D02*
X109999990Y-100800010D01*
D26*
X112549999Y-100749999D02*
X112600000Y-100800000D01*
X110050001Y-100749999D02*
X112549999Y-100749999D01*
X109999990Y-100800010D02*
X110050001Y-100749999D01*
D25*
G04 #@! TO.N,Net-(R3-Pad2)*
X125400000Y-117020000D02*
X125420000Y-117000000D01*
X125400000Y-119800000D02*
X125400000Y-117020000D01*
X164930000Y-121580000D02*
X150420000Y-121580000D01*
X150420000Y-121580000D02*
X143200000Y-128800000D01*
X143200000Y-128800000D02*
X134400000Y-128800000D01*
X134400000Y-128800000D02*
X125400000Y-119800000D01*
G04 #@! TO.N,Net-(C1-Pad1)*
X167880000Y-124120000D02*
X168000000Y-124000000D01*
X164930000Y-124120000D02*
X167880000Y-124120000D01*
G04 #@! TO.N,Net-(Q1-Pad1)*
X117800000Y-116800000D02*
X116000000Y-115000000D01*
X117800000Y-117000000D02*
X117800000Y-116800000D01*
G04 #@! TO.N,Net-(C4-Pad1)*
X115000000Y-106000000D02*
X115000000Y-107399998D01*
D26*
X119757500Y-113757500D02*
X119500000Y-113500000D01*
X119757500Y-116000000D02*
X119757500Y-113757500D01*
D25*
X117650000Y-113500000D02*
X117000000Y-112850000D01*
X119500000Y-113500000D02*
X117650000Y-113500000D01*
X117000000Y-112850000D02*
X117000000Y-109399998D01*
X115000000Y-107399998D02*
X117000000Y-109399998D01*
G04 #@! TO.N,Net-(F1-Pad2)*
X113460000Y-112860000D02*
X111600000Y-111000000D01*
X113460000Y-115000000D02*
X113460000Y-112860000D01*
G04 #@! TO.N,Net-(J2-Pad2)*
X121190001Y-112650001D02*
X122040000Y-113500000D01*
X121050001Y-112510001D02*
X121190001Y-112650001D01*
X121050001Y-107322793D02*
X121050001Y-112510001D01*
X121000000Y-107272792D02*
X121050001Y-107322793D01*
X121000000Y-106000000D02*
X121000000Y-107272792D01*
G04 #@! TO.N,Net-(R5-Pad2)*
X144517500Y-113960000D02*
X144557500Y-114000000D01*
X142070000Y-113960000D02*
X144517500Y-113960000D01*
G04 #@! TO.N,VCC*
X133100102Y-131160102D02*
X134540000Y-132600000D01*
X123600000Y-122400000D02*
X124340000Y-122400000D01*
X166380000Y-130000000D02*
X168000000Y-131620000D01*
X137140000Y-130000000D02*
X166380000Y-130000000D01*
X134540000Y-132600000D02*
X137140000Y-130000000D01*
X168000000Y-131620000D02*
X168000000Y-132000000D01*
X123600000Y-120600000D02*
X123600000Y-122400000D01*
X123600000Y-114900000D02*
X123600000Y-120600000D01*
X126400001Y-104600001D02*
X126400001Y-112099999D01*
X121000000Y-104000000D02*
X121000000Y-102727208D01*
X124199999Y-102399999D02*
X126400001Y-104600001D01*
X121000000Y-102727208D02*
X121327209Y-102399999D01*
X126400001Y-112099999D02*
X123600000Y-114900000D01*
X121327209Y-102399999D02*
X124199999Y-102399999D01*
X123600000Y-122400000D02*
X123600000Y-123400000D01*
X123600000Y-123400000D02*
X125340000Y-123400000D01*
X125340000Y-123400000D02*
X133100102Y-131160102D01*
X124340000Y-122400000D02*
X125340000Y-123400000D01*
G04 #@! TO.N,+5V*
X141590000Y-108400000D02*
X142070000Y-108880000D01*
X144322500Y-108880000D02*
X144400000Y-108957500D01*
X142070000Y-108880000D02*
X144322500Y-108880000D01*
X138880000Y-108880000D02*
X138400000Y-108400000D01*
X142070000Y-108880000D02*
X138880000Y-108880000D01*
X138400000Y-109000000D02*
X138400000Y-108400000D01*
X136400000Y-111000000D02*
X138400000Y-109000000D01*
X130740000Y-111000000D02*
X136400000Y-111000000D01*
X128200000Y-113540000D02*
X130740000Y-111000000D01*
X117000000Y-107600000D02*
X118600000Y-109200000D01*
X118600000Y-109200000D02*
X118600000Y-109868644D01*
X118600000Y-109868644D02*
X118600000Y-111000014D01*
X117000000Y-106000000D02*
X117000000Y-107600000D01*
X128200000Y-111000000D02*
X128200000Y-113540000D01*
G04 #@! TO.N,Net-(D2-Pad2)*
X147400000Y-101200000D02*
X138600000Y-101200000D01*
X146642500Y-116400000D02*
X148215000Y-116400000D01*
X151400000Y-113215000D02*
X151400000Y-105200000D01*
X148215000Y-116400000D02*
X151400000Y-113215000D01*
X151400000Y-105200000D02*
X147400000Y-101200000D01*
G04 #@! TO.N,Net-(D1-Pad2)*
X148215000Y-114000000D02*
X149800000Y-112415000D01*
X146642500Y-114000000D02*
X148215000Y-114000000D01*
X149800000Y-112415000D02*
X149800000Y-105800000D01*
X147400000Y-103400000D02*
X138600000Y-103400000D01*
X149800000Y-105800000D02*
X147400000Y-103400000D01*
G04 #@! TO.N,Net-(R6-Pad2)*
X144457500Y-116500000D02*
X144557500Y-116400000D01*
X142070000Y-116500000D02*
X144457500Y-116500000D01*
G04 #@! TD*
D27*
G04 #@! TO.N,GND*
G36*
X108448830Y-100780583D02*
X108330854Y-100957146D01*
X108242765Y-101400000D01*
X108265001Y-101511788D01*
X108265000Y-103561008D01*
X108242765Y-103672792D01*
X108284191Y-103881056D01*
X108330854Y-104115646D01*
X108581711Y-104491081D01*
X108676482Y-104554405D01*
X110845597Y-106723521D01*
X110908919Y-106818289D01*
X111183627Y-107001843D01*
X111284353Y-107069146D01*
X111727207Y-107157235D01*
X111838990Y-107135000D01*
X111964183Y-107135000D01*
X112130493Y-107301310D01*
X112694670Y-107535000D01*
X113305330Y-107535000D01*
X113861757Y-107304520D01*
X113842765Y-107399998D01*
X113865000Y-107511781D01*
X113930854Y-107842853D01*
X114181712Y-108218287D01*
X114276480Y-108281609D01*
X115865001Y-109870131D01*
X115865000Y-112738217D01*
X115842765Y-112850000D01*
X115873387Y-113003948D01*
X115930854Y-113292854D01*
X116037566Y-113452560D01*
X115100000Y-113452560D01*
X114852235Y-113501843D01*
X114642191Y-113642191D01*
X114595000Y-113712817D01*
X114595000Y-112971782D01*
X114617235Y-112859999D01*
X114529146Y-112417145D01*
X114443861Y-112289507D01*
X114278289Y-112041711D01*
X114183521Y-111978389D01*
X113235000Y-111029869D01*
X113235000Y-110674778D01*
X112986086Y-110073847D01*
X112526153Y-109613914D01*
X111925222Y-109365000D01*
X111274778Y-109365000D01*
X110673847Y-109613914D01*
X110213914Y-110073847D01*
X109965000Y-110674778D01*
X109965000Y-111325222D01*
X110213914Y-111926153D01*
X110673847Y-112386086D01*
X111274778Y-112635000D01*
X111629869Y-112635000D01*
X112325001Y-113330133D01*
X112325000Y-113935721D01*
X112182376Y-114149174D01*
X111827576Y-113762034D01*
X111284742Y-113508954D01*
X111047000Y-113629003D01*
X111047000Y-114873000D01*
X111067000Y-114873000D01*
X111067000Y-115127000D01*
X111047000Y-115127000D01*
X111047000Y-116370997D01*
X111284742Y-116491046D01*
X111827576Y-116237966D01*
X112182376Y-115850826D01*
X112353327Y-116106673D01*
X112861073Y-116445938D01*
X113308818Y-116535000D01*
X113611182Y-116535000D01*
X114058927Y-116445938D01*
X114502871Y-116149304D01*
X114642191Y-116357809D01*
X114852235Y-116498157D01*
X115100000Y-116547440D01*
X115942309Y-116547440D01*
X116365000Y-116970132D01*
X116365000Y-117285439D01*
X116583466Y-117812862D01*
X116987138Y-118216534D01*
X117514561Y-118435000D01*
X118085439Y-118435000D01*
X118612862Y-118216534D01*
X119016534Y-117812862D01*
X119188608Y-117397440D01*
X120330000Y-117397440D01*
X120577765Y-117348157D01*
X120787809Y-117207809D01*
X120804622Y-117182647D01*
X120910302Y-117288327D01*
X121143691Y-117385000D01*
X121556750Y-117385000D01*
X121715500Y-117226250D01*
X121715500Y-116127000D01*
X121695500Y-116127000D01*
X121695500Y-115873000D01*
X121715500Y-115873000D01*
X121715500Y-115853000D01*
X121969500Y-115853000D01*
X121969500Y-115873000D01*
X121989500Y-115873000D01*
X121989500Y-116127000D01*
X121969500Y-116127000D01*
X121969500Y-117226250D01*
X122128250Y-117385000D01*
X122465000Y-117385000D01*
X122465001Y-120488213D01*
X122465000Y-120488218D01*
X122465001Y-122060131D01*
X122342191Y-122142191D01*
X122201843Y-122352235D01*
X122155307Y-122586187D01*
X122107745Y-122571861D01*
X121279605Y-123400000D01*
X122107745Y-124228139D01*
X122155307Y-124213813D01*
X122201843Y-124447765D01*
X122342191Y-124657809D01*
X122552235Y-124798157D01*
X122800000Y-124847440D01*
X124400000Y-124847440D01*
X124647765Y-124798157D01*
X124857809Y-124657809D01*
X124911830Y-124576961D01*
X132376577Y-132041710D01*
X132376583Y-132041714D01*
X132512346Y-132177477D01*
X132505000Y-132195213D01*
X132505000Y-133004787D01*
X132814810Y-133752735D01*
X133327075Y-134265000D01*
X129355272Y-134265000D01*
X129462118Y-134041724D01*
X128200000Y-132779605D01*
X126937882Y-134041724D01*
X127044728Y-134265000D01*
X113870341Y-134265000D01*
X114488126Y-134142115D01*
X115359729Y-133559729D01*
X115942115Y-132688126D01*
X116031246Y-132240031D01*
X126156595Y-132240031D01*
X126174386Y-133049409D01*
X126449894Y-133714545D01*
X126758276Y-133862118D01*
X128020395Y-132600000D01*
X128379605Y-132600000D01*
X129641724Y-133862118D01*
X129950106Y-133714545D01*
X130243405Y-132959969D01*
X130225614Y-132150591D01*
X129950106Y-131485455D01*
X129641724Y-131337882D01*
X128379605Y-132600000D01*
X128020395Y-132600000D01*
X126758276Y-131337882D01*
X126449894Y-131485455D01*
X126156595Y-132240031D01*
X116031246Y-132240031D01*
X116146622Y-131660000D01*
X116046823Y-131158276D01*
X126937882Y-131158276D01*
X128200000Y-132420395D01*
X129462118Y-131158276D01*
X129314545Y-130849894D01*
X128559969Y-130556595D01*
X127750591Y-130574386D01*
X127085455Y-130849894D01*
X126937882Y-131158276D01*
X116046823Y-131158276D01*
X115942115Y-130631874D01*
X115359729Y-129760271D01*
X114488126Y-129177885D01*
X113719521Y-129025000D01*
X113200479Y-129025000D01*
X112431874Y-129177885D01*
X111560271Y-129760271D01*
X110977885Y-130631874D01*
X110773378Y-131660000D01*
X110977885Y-132688126D01*
X111560271Y-133559729D01*
X112431874Y-134142115D01*
X113049659Y-134265000D01*
X100735000Y-134265000D01*
X100735000Y-130475866D01*
X101365000Y-130475866D01*
X101365000Y-131524134D01*
X101766155Y-132492608D01*
X102507392Y-133233845D01*
X103475866Y-133635000D01*
X104524134Y-133635000D01*
X105492608Y-133233845D01*
X106233845Y-132492608D01*
X106635000Y-131524134D01*
X106635000Y-130475866D01*
X106233845Y-129507392D01*
X105492608Y-128766155D01*
X104524134Y-128365000D01*
X103475866Y-128365000D01*
X102507392Y-128766155D01*
X101766155Y-129507392D01*
X101365000Y-130475866D01*
X100735000Y-130475866D01*
X100735000Y-124407745D01*
X120271861Y-124407745D01*
X120345995Y-124653864D01*
X120883223Y-124846965D01*
X121453454Y-124819778D01*
X121854005Y-124653864D01*
X121928139Y-124407745D01*
X121100000Y-123579605D01*
X120271861Y-124407745D01*
X100735000Y-124407745D01*
X100735000Y-123183223D01*
X119653035Y-123183223D01*
X119680222Y-123753454D01*
X119846136Y-124154005D01*
X120092255Y-124228139D01*
X120920395Y-123400000D01*
X120092255Y-122571861D01*
X119846136Y-122645995D01*
X119653035Y-123183223D01*
X100735000Y-123183223D01*
X100735000Y-122392255D01*
X120271861Y-122392255D01*
X121100000Y-123220395D01*
X121928139Y-122392255D01*
X121854005Y-122146136D01*
X121316777Y-121953035D01*
X120746546Y-121980222D01*
X120345995Y-122146136D01*
X120271861Y-122392255D01*
X100735000Y-122392255D01*
X100735000Y-115364740D01*
X109428964Y-115364740D01*
X109607760Y-115796417D01*
X110012424Y-116237966D01*
X110555258Y-116491046D01*
X110793000Y-116370997D01*
X110793000Y-115127000D01*
X109549622Y-115127000D01*
X109428964Y-115364740D01*
X100735000Y-115364740D01*
X100735000Y-114635260D01*
X109428964Y-114635260D01*
X109549622Y-114873000D01*
X110793000Y-114873000D01*
X110793000Y-113629003D01*
X110555258Y-113508954D01*
X110012424Y-113762034D01*
X109607760Y-114203583D01*
X109428964Y-114635260D01*
X100735000Y-114635260D01*
X100735000Y-103475866D01*
X101365000Y-103475866D01*
X101365000Y-104524134D01*
X101766155Y-105492608D01*
X102507392Y-106233845D01*
X103475866Y-106635000D01*
X104524134Y-106635000D01*
X105492608Y-106233845D01*
X106233845Y-105492608D01*
X106635000Y-104524134D01*
X106635000Y-103475866D01*
X106233845Y-102507392D01*
X105492608Y-101766155D01*
X104524134Y-101365000D01*
X103475866Y-101365000D01*
X102507392Y-101766155D01*
X101766155Y-102507392D01*
X101365000Y-103475866D01*
X100735000Y-103475866D01*
X100735000Y-100735000D01*
X108479288Y-100735000D01*
X108448830Y-100780583D01*
X108448830Y-100780583D01*
G37*
X108448830Y-100780583D02*
X108330854Y-100957146D01*
X108242765Y-101400000D01*
X108265001Y-101511788D01*
X108265000Y-103561008D01*
X108242765Y-103672792D01*
X108284191Y-103881056D01*
X108330854Y-104115646D01*
X108581711Y-104491081D01*
X108676482Y-104554405D01*
X110845597Y-106723521D01*
X110908919Y-106818289D01*
X111183627Y-107001843D01*
X111284353Y-107069146D01*
X111727207Y-107157235D01*
X111838990Y-107135000D01*
X111964183Y-107135000D01*
X112130493Y-107301310D01*
X112694670Y-107535000D01*
X113305330Y-107535000D01*
X113861757Y-107304520D01*
X113842765Y-107399998D01*
X113865000Y-107511781D01*
X113930854Y-107842853D01*
X114181712Y-108218287D01*
X114276480Y-108281609D01*
X115865001Y-109870131D01*
X115865000Y-112738217D01*
X115842765Y-112850000D01*
X115873387Y-113003948D01*
X115930854Y-113292854D01*
X116037566Y-113452560D01*
X115100000Y-113452560D01*
X114852235Y-113501843D01*
X114642191Y-113642191D01*
X114595000Y-113712817D01*
X114595000Y-112971782D01*
X114617235Y-112859999D01*
X114529146Y-112417145D01*
X114443861Y-112289507D01*
X114278289Y-112041711D01*
X114183521Y-111978389D01*
X113235000Y-111029869D01*
X113235000Y-110674778D01*
X112986086Y-110073847D01*
X112526153Y-109613914D01*
X111925222Y-109365000D01*
X111274778Y-109365000D01*
X110673847Y-109613914D01*
X110213914Y-110073847D01*
X109965000Y-110674778D01*
X109965000Y-111325222D01*
X110213914Y-111926153D01*
X110673847Y-112386086D01*
X111274778Y-112635000D01*
X111629869Y-112635000D01*
X112325001Y-113330133D01*
X112325000Y-113935721D01*
X112182376Y-114149174D01*
X111827576Y-113762034D01*
X111284742Y-113508954D01*
X111047000Y-113629003D01*
X111047000Y-114873000D01*
X111067000Y-114873000D01*
X111067000Y-115127000D01*
X111047000Y-115127000D01*
X111047000Y-116370997D01*
X111284742Y-116491046D01*
X111827576Y-116237966D01*
X112182376Y-115850826D01*
X112353327Y-116106673D01*
X112861073Y-116445938D01*
X113308818Y-116535000D01*
X113611182Y-116535000D01*
X114058927Y-116445938D01*
X114502871Y-116149304D01*
X114642191Y-116357809D01*
X114852235Y-116498157D01*
X115100000Y-116547440D01*
X115942309Y-116547440D01*
X116365000Y-116970132D01*
X116365000Y-117285439D01*
X116583466Y-117812862D01*
X116987138Y-118216534D01*
X117514561Y-118435000D01*
X118085439Y-118435000D01*
X118612862Y-118216534D01*
X119016534Y-117812862D01*
X119188608Y-117397440D01*
X120330000Y-117397440D01*
X120577765Y-117348157D01*
X120787809Y-117207809D01*
X120804622Y-117182647D01*
X120910302Y-117288327D01*
X121143691Y-117385000D01*
X121556750Y-117385000D01*
X121715500Y-117226250D01*
X121715500Y-116127000D01*
X121695500Y-116127000D01*
X121695500Y-115873000D01*
X121715500Y-115873000D01*
X121715500Y-115853000D01*
X121969500Y-115853000D01*
X121969500Y-115873000D01*
X121989500Y-115873000D01*
X121989500Y-116127000D01*
X121969500Y-116127000D01*
X121969500Y-117226250D01*
X122128250Y-117385000D01*
X122465000Y-117385000D01*
X122465001Y-120488213D01*
X122465000Y-120488218D01*
X122465001Y-122060131D01*
X122342191Y-122142191D01*
X122201843Y-122352235D01*
X122155307Y-122586187D01*
X122107745Y-122571861D01*
X121279605Y-123400000D01*
X122107745Y-124228139D01*
X122155307Y-124213813D01*
X122201843Y-124447765D01*
X122342191Y-124657809D01*
X122552235Y-124798157D01*
X122800000Y-124847440D01*
X124400000Y-124847440D01*
X124647765Y-124798157D01*
X124857809Y-124657809D01*
X124911830Y-124576961D01*
X132376577Y-132041710D01*
X132376583Y-132041714D01*
X132512346Y-132177477D01*
X132505000Y-132195213D01*
X132505000Y-133004787D01*
X132814810Y-133752735D01*
X133327075Y-134265000D01*
X129355272Y-134265000D01*
X129462118Y-134041724D01*
X128200000Y-132779605D01*
X126937882Y-134041724D01*
X127044728Y-134265000D01*
X113870341Y-134265000D01*
X114488126Y-134142115D01*
X115359729Y-133559729D01*
X115942115Y-132688126D01*
X116031246Y-132240031D01*
X126156595Y-132240031D01*
X126174386Y-133049409D01*
X126449894Y-133714545D01*
X126758276Y-133862118D01*
X128020395Y-132600000D01*
X128379605Y-132600000D01*
X129641724Y-133862118D01*
X129950106Y-133714545D01*
X130243405Y-132959969D01*
X130225614Y-132150591D01*
X129950106Y-131485455D01*
X129641724Y-131337882D01*
X128379605Y-132600000D01*
X128020395Y-132600000D01*
X126758276Y-131337882D01*
X126449894Y-131485455D01*
X126156595Y-132240031D01*
X116031246Y-132240031D01*
X116146622Y-131660000D01*
X116046823Y-131158276D01*
X126937882Y-131158276D01*
X128200000Y-132420395D01*
X129462118Y-131158276D01*
X129314545Y-130849894D01*
X128559969Y-130556595D01*
X127750591Y-130574386D01*
X127085455Y-130849894D01*
X126937882Y-131158276D01*
X116046823Y-131158276D01*
X115942115Y-130631874D01*
X115359729Y-129760271D01*
X114488126Y-129177885D01*
X113719521Y-129025000D01*
X113200479Y-129025000D01*
X112431874Y-129177885D01*
X111560271Y-129760271D01*
X110977885Y-130631874D01*
X110773378Y-131660000D01*
X110977885Y-132688126D01*
X111560271Y-133559729D01*
X112431874Y-134142115D01*
X113049659Y-134265000D01*
X100735000Y-134265000D01*
X100735000Y-130475866D01*
X101365000Y-130475866D01*
X101365000Y-131524134D01*
X101766155Y-132492608D01*
X102507392Y-133233845D01*
X103475866Y-133635000D01*
X104524134Y-133635000D01*
X105492608Y-133233845D01*
X106233845Y-132492608D01*
X106635000Y-131524134D01*
X106635000Y-130475866D01*
X106233845Y-129507392D01*
X105492608Y-128766155D01*
X104524134Y-128365000D01*
X103475866Y-128365000D01*
X102507392Y-128766155D01*
X101766155Y-129507392D01*
X101365000Y-130475866D01*
X100735000Y-130475866D01*
X100735000Y-124407745D01*
X120271861Y-124407745D01*
X120345995Y-124653864D01*
X120883223Y-124846965D01*
X121453454Y-124819778D01*
X121854005Y-124653864D01*
X121928139Y-124407745D01*
X121100000Y-123579605D01*
X120271861Y-124407745D01*
X100735000Y-124407745D01*
X100735000Y-123183223D01*
X119653035Y-123183223D01*
X119680222Y-123753454D01*
X119846136Y-124154005D01*
X120092255Y-124228139D01*
X120920395Y-123400000D01*
X120092255Y-122571861D01*
X119846136Y-122645995D01*
X119653035Y-123183223D01*
X100735000Y-123183223D01*
X100735000Y-122392255D01*
X120271861Y-122392255D01*
X121100000Y-123220395D01*
X121928139Y-122392255D01*
X121854005Y-122146136D01*
X121316777Y-121953035D01*
X120746546Y-121980222D01*
X120345995Y-122146136D01*
X120271861Y-122392255D01*
X100735000Y-122392255D01*
X100735000Y-115364740D01*
X109428964Y-115364740D01*
X109607760Y-115796417D01*
X110012424Y-116237966D01*
X110555258Y-116491046D01*
X110793000Y-116370997D01*
X110793000Y-115127000D01*
X109549622Y-115127000D01*
X109428964Y-115364740D01*
X100735000Y-115364740D01*
X100735000Y-114635260D01*
X109428964Y-114635260D01*
X109549622Y-114873000D01*
X110793000Y-114873000D01*
X110793000Y-113629003D01*
X110555258Y-113508954D01*
X110012424Y-113762034D01*
X109607760Y-114203583D01*
X109428964Y-114635260D01*
X100735000Y-114635260D01*
X100735000Y-103475866D01*
X101365000Y-103475866D01*
X101365000Y-104524134D01*
X101766155Y-105492608D01*
X102507392Y-106233845D01*
X103475866Y-106635000D01*
X104524134Y-106635000D01*
X105492608Y-106233845D01*
X106233845Y-105492608D01*
X106635000Y-104524134D01*
X106635000Y-103475866D01*
X106233845Y-102507392D01*
X105492608Y-101766155D01*
X104524134Y-101365000D01*
X103475866Y-101365000D01*
X102507392Y-101766155D01*
X101766155Y-102507392D01*
X101365000Y-103475866D01*
X100735000Y-103475866D01*
X100735000Y-100735000D01*
X108479288Y-100735000D01*
X108448830Y-100780583D01*
G36*
X137165000Y-100914561D02*
X137165000Y-101485439D01*
X137383466Y-102012862D01*
X137670604Y-102300000D01*
X137383466Y-102587138D01*
X137165000Y-103114561D01*
X137165000Y-103685439D01*
X137383466Y-104212862D01*
X137787138Y-104616534D01*
X138314561Y-104835000D01*
X138885439Y-104835000D01*
X139412862Y-104616534D01*
X139494396Y-104535000D01*
X146929869Y-104535000D01*
X148665001Y-106270134D01*
X148665000Y-111944867D01*
X147744869Y-112865000D01*
X147721459Y-112865000D01*
X147672809Y-112792191D01*
X147462765Y-112651843D01*
X147215000Y-112602560D01*
X146070000Y-112602560D01*
X145822235Y-112651843D01*
X145612191Y-112792191D01*
X145600000Y-112810436D01*
X145587809Y-112792191D01*
X145377765Y-112651843D01*
X145130000Y-112602560D01*
X143985000Y-112602560D01*
X143737235Y-112651843D01*
X143527191Y-112792191D01*
X143505269Y-112825000D01*
X143105817Y-112825000D01*
X142939507Y-112658690D01*
X142919885Y-112650562D01*
X142970554Y-112500159D01*
X142070000Y-111599605D01*
X141169446Y-112500159D01*
X141220115Y-112650562D01*
X141200493Y-112658690D01*
X140768690Y-113090493D01*
X140535000Y-113654670D01*
X140535000Y-114265330D01*
X140768690Y-114829507D01*
X141169183Y-115230000D01*
X140768690Y-115630493D01*
X140535000Y-116194670D01*
X140535000Y-116805330D01*
X140768690Y-117369507D01*
X141169183Y-117770000D01*
X140768690Y-118170493D01*
X140535000Y-118734670D01*
X140535000Y-119345330D01*
X140768690Y-119909507D01*
X141169183Y-120310000D01*
X140768690Y-120710493D01*
X140535000Y-121274670D01*
X140535000Y-121885330D01*
X140768690Y-122449507D01*
X141169183Y-122850000D01*
X140768690Y-123250493D01*
X140535000Y-123814670D01*
X140535000Y-124425330D01*
X140768690Y-124989507D01*
X141169183Y-125390000D01*
X140768690Y-125790493D01*
X140535000Y-126354670D01*
X140535000Y-126965330D01*
X140768690Y-127529507D01*
X140904183Y-127665000D01*
X134870132Y-127665000D01*
X126535000Y-119329869D01*
X126535000Y-117914215D01*
X126771740Y-117559909D01*
X126883113Y-117000000D01*
X126771740Y-116440091D01*
X126454577Y-115965423D01*
X125979909Y-115648260D01*
X125561333Y-115565000D01*
X125278667Y-115565000D01*
X124860091Y-115648260D01*
X124735000Y-115731843D01*
X124735000Y-115370131D01*
X126165000Y-113940132D01*
X126165000Y-113944787D01*
X126474810Y-114692735D01*
X127047265Y-115265190D01*
X127795213Y-115575000D01*
X128604787Y-115575000D01*
X129352735Y-115265190D01*
X129925190Y-114692735D01*
X130235000Y-113944787D01*
X130235000Y-113135213D01*
X130227654Y-113117478D01*
X131210132Y-112135000D01*
X136247075Y-112135000D01*
X135994810Y-112387265D01*
X135685000Y-113135213D01*
X135685000Y-113944787D01*
X135994810Y-114692735D01*
X136567265Y-115265190D01*
X137315213Y-115575000D01*
X138124787Y-115575000D01*
X138872735Y-115265190D01*
X139445190Y-114692735D01*
X139755000Y-113944787D01*
X139755000Y-113135213D01*
X139445190Y-112387265D01*
X138872735Y-111814810D01*
X138124787Y-111505000D01*
X137500131Y-111505000D01*
X137825795Y-111179336D01*
X140523542Y-111179336D01*
X140549161Y-111789460D01*
X140733357Y-112234148D01*
X140989841Y-112320554D01*
X141890395Y-111420000D01*
X140989841Y-110519446D01*
X140733357Y-110605852D01*
X140523542Y-111179336D01*
X137825795Y-111179336D01*
X138989722Y-110015410D01*
X138991783Y-110015000D01*
X141034183Y-110015000D01*
X141200493Y-110181310D01*
X141220115Y-110189438D01*
X141169446Y-110339841D01*
X142070000Y-111240395D01*
X142084143Y-111226253D01*
X142263748Y-111405858D01*
X142249605Y-111420000D01*
X143150159Y-112320554D01*
X143406643Y-112234148D01*
X143417010Y-112205812D01*
X143523690Y-112250000D01*
X144114250Y-112250000D01*
X144273000Y-112091250D01*
X144273000Y-111169500D01*
X144527000Y-111169500D01*
X144527000Y-112091250D01*
X144685750Y-112250000D01*
X145276310Y-112250000D01*
X145509699Y-112153327D01*
X145688327Y-111974698D01*
X145785000Y-111741309D01*
X145785000Y-111328250D01*
X145626250Y-111169500D01*
X144527000Y-111169500D01*
X144273000Y-111169500D01*
X144253000Y-111169500D01*
X144253000Y-110915500D01*
X144273000Y-110915500D01*
X144273000Y-110895500D01*
X144527000Y-110895500D01*
X144527000Y-110915500D01*
X145626250Y-110915500D01*
X145785000Y-110756750D01*
X145785000Y-110343691D01*
X145688327Y-110110302D01*
X145582647Y-110004622D01*
X145607809Y-109987809D01*
X145748157Y-109777765D01*
X145797440Y-109530000D01*
X145797440Y-108385000D01*
X145748157Y-108137235D01*
X145607809Y-107927191D01*
X145397765Y-107786843D01*
X145150000Y-107737560D01*
X144396880Y-107737560D01*
X144322500Y-107722765D01*
X144248120Y-107737560D01*
X143650000Y-107737560D01*
X143612596Y-107745000D01*
X143105817Y-107745000D01*
X142939507Y-107578690D01*
X142375330Y-107345000D01*
X142054025Y-107345000D01*
X142032854Y-107330854D01*
X141590000Y-107242765D01*
X141147146Y-107330854D01*
X140771712Y-107581712D01*
X140662606Y-107745000D01*
X139847440Y-107745000D01*
X139847440Y-107600000D01*
X139798157Y-107352235D01*
X139657809Y-107142191D01*
X139447765Y-107001843D01*
X139200000Y-106952560D01*
X137600000Y-106952560D01*
X137352235Y-107001843D01*
X137142191Y-107142191D01*
X137001843Y-107352235D01*
X136955307Y-107586187D01*
X136907745Y-107571861D01*
X136079605Y-108400000D01*
X136093748Y-108414142D01*
X135914142Y-108593748D01*
X135900000Y-108579605D01*
X135071861Y-109407745D01*
X135145995Y-109653864D01*
X135683223Y-109846965D01*
X135961155Y-109833714D01*
X135929869Y-109865000D01*
X130851781Y-109865000D01*
X130739999Y-109842765D01*
X130628217Y-109865000D01*
X130297145Y-109930854D01*
X129921711Y-110181711D01*
X129858389Y-110276479D01*
X129572118Y-110562750D01*
X129416534Y-110187138D01*
X129012862Y-109783466D01*
X128485439Y-109565000D01*
X127914561Y-109565000D01*
X127535001Y-109722219D01*
X127535001Y-108183223D01*
X134453035Y-108183223D01*
X134480222Y-108753454D01*
X134646136Y-109154005D01*
X134892255Y-109228139D01*
X135720395Y-108400000D01*
X134892255Y-107571861D01*
X134646136Y-107645995D01*
X134453035Y-108183223D01*
X127535001Y-108183223D01*
X127535001Y-106896890D01*
X128058524Y-106896890D01*
X128228355Y-107306924D01*
X128618642Y-107735183D01*
X129143108Y-107981486D01*
X129373000Y-107860819D01*
X129373000Y-106667000D01*
X129627000Y-106667000D01*
X129627000Y-107860819D01*
X129856892Y-107981486D01*
X130381358Y-107735183D01*
X130693879Y-107392255D01*
X135071861Y-107392255D01*
X135900000Y-108220395D01*
X136728139Y-107392255D01*
X136654005Y-107146136D01*
X136116777Y-106953035D01*
X135546546Y-106980222D01*
X135145995Y-107146136D01*
X135071861Y-107392255D01*
X130693879Y-107392255D01*
X130771645Y-107306924D01*
X130941476Y-106896890D01*
X130820155Y-106667000D01*
X129627000Y-106667000D01*
X129373000Y-106667000D01*
X128179845Y-106667000D01*
X128058524Y-106896890D01*
X127535001Y-106896890D01*
X127535001Y-105134360D01*
X127650000Y-105157235D01*
X127761783Y-105135000D01*
X128076723Y-105135000D01*
X128192191Y-105307809D01*
X128402235Y-105448157D01*
X128505708Y-105468739D01*
X128228355Y-105773076D01*
X128058524Y-106183110D01*
X128179845Y-106413000D01*
X129373000Y-106413000D01*
X129373000Y-106393000D01*
X129627000Y-106393000D01*
X129627000Y-106413000D01*
X130820155Y-106413000D01*
X130941476Y-106183110D01*
X130771645Y-105773076D01*
X130494292Y-105468739D01*
X130597765Y-105448157D01*
X130807809Y-105307809D01*
X130948157Y-105097765D01*
X130997440Y-104850000D01*
X130997440Y-103150000D01*
X130948157Y-102902235D01*
X130807809Y-102692191D01*
X130597765Y-102551843D01*
X130350000Y-102502560D01*
X128650000Y-102502560D01*
X128402235Y-102551843D01*
X128192191Y-102692191D01*
X128094110Y-102838978D01*
X125990131Y-100735000D01*
X137239377Y-100735000D01*
X137165000Y-100914561D01*
X137165000Y-100914561D01*
G37*
X137165000Y-100914561D02*
X137165000Y-101485439D01*
X137383466Y-102012862D01*
X137670604Y-102300000D01*
X137383466Y-102587138D01*
X137165000Y-103114561D01*
X137165000Y-103685439D01*
X137383466Y-104212862D01*
X137787138Y-104616534D01*
X138314561Y-104835000D01*
X138885439Y-104835000D01*
X139412862Y-104616534D01*
X139494396Y-104535000D01*
X146929869Y-104535000D01*
X148665001Y-106270134D01*
X148665000Y-111944867D01*
X147744869Y-112865000D01*
X147721459Y-112865000D01*
X147672809Y-112792191D01*
X147462765Y-112651843D01*
X147215000Y-112602560D01*
X146070000Y-112602560D01*
X145822235Y-112651843D01*
X145612191Y-112792191D01*
X145600000Y-112810436D01*
X145587809Y-112792191D01*
X145377765Y-112651843D01*
X145130000Y-112602560D01*
X143985000Y-112602560D01*
X143737235Y-112651843D01*
X143527191Y-112792191D01*
X143505269Y-112825000D01*
X143105817Y-112825000D01*
X142939507Y-112658690D01*
X142919885Y-112650562D01*
X142970554Y-112500159D01*
X142070000Y-111599605D01*
X141169446Y-112500159D01*
X141220115Y-112650562D01*
X141200493Y-112658690D01*
X140768690Y-113090493D01*
X140535000Y-113654670D01*
X140535000Y-114265330D01*
X140768690Y-114829507D01*
X141169183Y-115230000D01*
X140768690Y-115630493D01*
X140535000Y-116194670D01*
X140535000Y-116805330D01*
X140768690Y-117369507D01*
X141169183Y-117770000D01*
X140768690Y-118170493D01*
X140535000Y-118734670D01*
X140535000Y-119345330D01*
X140768690Y-119909507D01*
X141169183Y-120310000D01*
X140768690Y-120710493D01*
X140535000Y-121274670D01*
X140535000Y-121885330D01*
X140768690Y-122449507D01*
X141169183Y-122850000D01*
X140768690Y-123250493D01*
X140535000Y-123814670D01*
X140535000Y-124425330D01*
X140768690Y-124989507D01*
X141169183Y-125390000D01*
X140768690Y-125790493D01*
X140535000Y-126354670D01*
X140535000Y-126965330D01*
X140768690Y-127529507D01*
X140904183Y-127665000D01*
X134870132Y-127665000D01*
X126535000Y-119329869D01*
X126535000Y-117914215D01*
X126771740Y-117559909D01*
X126883113Y-117000000D01*
X126771740Y-116440091D01*
X126454577Y-115965423D01*
X125979909Y-115648260D01*
X125561333Y-115565000D01*
X125278667Y-115565000D01*
X124860091Y-115648260D01*
X124735000Y-115731843D01*
X124735000Y-115370131D01*
X126165000Y-113940132D01*
X126165000Y-113944787D01*
X126474810Y-114692735D01*
X127047265Y-115265190D01*
X127795213Y-115575000D01*
X128604787Y-115575000D01*
X129352735Y-115265190D01*
X129925190Y-114692735D01*
X130235000Y-113944787D01*
X130235000Y-113135213D01*
X130227654Y-113117478D01*
X131210132Y-112135000D01*
X136247075Y-112135000D01*
X135994810Y-112387265D01*
X135685000Y-113135213D01*
X135685000Y-113944787D01*
X135994810Y-114692735D01*
X136567265Y-115265190D01*
X137315213Y-115575000D01*
X138124787Y-115575000D01*
X138872735Y-115265190D01*
X139445190Y-114692735D01*
X139755000Y-113944787D01*
X139755000Y-113135213D01*
X139445190Y-112387265D01*
X138872735Y-111814810D01*
X138124787Y-111505000D01*
X137500131Y-111505000D01*
X137825795Y-111179336D01*
X140523542Y-111179336D01*
X140549161Y-111789460D01*
X140733357Y-112234148D01*
X140989841Y-112320554D01*
X141890395Y-111420000D01*
X140989841Y-110519446D01*
X140733357Y-110605852D01*
X140523542Y-111179336D01*
X137825795Y-111179336D01*
X138989722Y-110015410D01*
X138991783Y-110015000D01*
X141034183Y-110015000D01*
X141200493Y-110181310D01*
X141220115Y-110189438D01*
X141169446Y-110339841D01*
X142070000Y-111240395D01*
X142084143Y-111226253D01*
X142263748Y-111405858D01*
X142249605Y-111420000D01*
X143150159Y-112320554D01*
X143406643Y-112234148D01*
X143417010Y-112205812D01*
X143523690Y-112250000D01*
X144114250Y-112250000D01*
X144273000Y-112091250D01*
X144273000Y-111169500D01*
X144527000Y-111169500D01*
X144527000Y-112091250D01*
X144685750Y-112250000D01*
X145276310Y-112250000D01*
X145509699Y-112153327D01*
X145688327Y-111974698D01*
X145785000Y-111741309D01*
X145785000Y-111328250D01*
X145626250Y-111169500D01*
X144527000Y-111169500D01*
X144273000Y-111169500D01*
X144253000Y-111169500D01*
X144253000Y-110915500D01*
X144273000Y-110915500D01*
X144273000Y-110895500D01*
X144527000Y-110895500D01*
X144527000Y-110915500D01*
X145626250Y-110915500D01*
X145785000Y-110756750D01*
X145785000Y-110343691D01*
X145688327Y-110110302D01*
X145582647Y-110004622D01*
X145607809Y-109987809D01*
X145748157Y-109777765D01*
X145797440Y-109530000D01*
X145797440Y-108385000D01*
X145748157Y-108137235D01*
X145607809Y-107927191D01*
X145397765Y-107786843D01*
X145150000Y-107737560D01*
X144396880Y-107737560D01*
X144322500Y-107722765D01*
X144248120Y-107737560D01*
X143650000Y-107737560D01*
X143612596Y-107745000D01*
X143105817Y-107745000D01*
X142939507Y-107578690D01*
X142375330Y-107345000D01*
X142054025Y-107345000D01*
X142032854Y-107330854D01*
X141590000Y-107242765D01*
X141147146Y-107330854D01*
X140771712Y-107581712D01*
X140662606Y-107745000D01*
X139847440Y-107745000D01*
X139847440Y-107600000D01*
X139798157Y-107352235D01*
X139657809Y-107142191D01*
X139447765Y-107001843D01*
X139200000Y-106952560D01*
X137600000Y-106952560D01*
X137352235Y-107001843D01*
X137142191Y-107142191D01*
X137001843Y-107352235D01*
X136955307Y-107586187D01*
X136907745Y-107571861D01*
X136079605Y-108400000D01*
X136093748Y-108414142D01*
X135914142Y-108593748D01*
X135900000Y-108579605D01*
X135071861Y-109407745D01*
X135145995Y-109653864D01*
X135683223Y-109846965D01*
X135961155Y-109833714D01*
X135929869Y-109865000D01*
X130851781Y-109865000D01*
X130739999Y-109842765D01*
X130628217Y-109865000D01*
X130297145Y-109930854D01*
X129921711Y-110181711D01*
X129858389Y-110276479D01*
X129572118Y-110562750D01*
X129416534Y-110187138D01*
X129012862Y-109783466D01*
X128485439Y-109565000D01*
X127914561Y-109565000D01*
X127535001Y-109722219D01*
X127535001Y-108183223D01*
X134453035Y-108183223D01*
X134480222Y-108753454D01*
X134646136Y-109154005D01*
X134892255Y-109228139D01*
X135720395Y-108400000D01*
X134892255Y-107571861D01*
X134646136Y-107645995D01*
X134453035Y-108183223D01*
X127535001Y-108183223D01*
X127535001Y-106896890D01*
X128058524Y-106896890D01*
X128228355Y-107306924D01*
X128618642Y-107735183D01*
X129143108Y-107981486D01*
X129373000Y-107860819D01*
X129373000Y-106667000D01*
X129627000Y-106667000D01*
X129627000Y-107860819D01*
X129856892Y-107981486D01*
X130381358Y-107735183D01*
X130693879Y-107392255D01*
X135071861Y-107392255D01*
X135900000Y-108220395D01*
X136728139Y-107392255D01*
X136654005Y-107146136D01*
X136116777Y-106953035D01*
X135546546Y-106980222D01*
X135145995Y-107146136D01*
X135071861Y-107392255D01*
X130693879Y-107392255D01*
X130771645Y-107306924D01*
X130941476Y-106896890D01*
X130820155Y-106667000D01*
X129627000Y-106667000D01*
X129373000Y-106667000D01*
X128179845Y-106667000D01*
X128058524Y-106896890D01*
X127535001Y-106896890D01*
X127535001Y-105134360D01*
X127650000Y-105157235D01*
X127761783Y-105135000D01*
X128076723Y-105135000D01*
X128192191Y-105307809D01*
X128402235Y-105448157D01*
X128505708Y-105468739D01*
X128228355Y-105773076D01*
X128058524Y-106183110D01*
X128179845Y-106413000D01*
X129373000Y-106413000D01*
X129373000Y-106393000D01*
X129627000Y-106393000D01*
X129627000Y-106413000D01*
X130820155Y-106413000D01*
X130941476Y-106183110D01*
X130771645Y-105773076D01*
X130494292Y-105468739D01*
X130597765Y-105448157D01*
X130807809Y-105307809D01*
X130948157Y-105097765D01*
X130997440Y-104850000D01*
X130997440Y-103150000D01*
X130948157Y-102902235D01*
X130807809Y-102692191D01*
X130597765Y-102551843D01*
X130350000Y-102502560D01*
X128650000Y-102502560D01*
X128402235Y-102551843D01*
X128192191Y-102692191D01*
X128094110Y-102838978D01*
X125990131Y-100735000D01*
X137239377Y-100735000D01*
X137165000Y-100914561D01*
G36*
X119842765Y-107272792D02*
X119865000Y-107384575D01*
X119915001Y-107635949D01*
X119915002Y-110424874D01*
X119816534Y-110187152D01*
X119735000Y-110105618D01*
X119735000Y-109311783D01*
X119757235Y-109200000D01*
X119669146Y-108757145D01*
X119654853Y-108735754D01*
X119418289Y-108381711D01*
X119323521Y-108318389D01*
X118431732Y-107426601D01*
X118759336Y-107546458D01*
X119369460Y-107520839D01*
X119814148Y-107336643D01*
X119853010Y-107221286D01*
X119842765Y-107272792D01*
X119842765Y-107272792D01*
G37*
X119842765Y-107272792D02*
X119865000Y-107384575D01*
X119915001Y-107635949D01*
X119915002Y-110424874D01*
X119816534Y-110187152D01*
X119735000Y-110105618D01*
X119735000Y-109311783D01*
X119757235Y-109200000D01*
X119669146Y-108757145D01*
X119654853Y-108735754D01*
X119418289Y-108381711D01*
X119323521Y-108318389D01*
X118431732Y-107426601D01*
X118759336Y-107546458D01*
X119369460Y-107520839D01*
X119814148Y-107336643D01*
X119853010Y-107221286D01*
X119842765Y-107272792D01*
G36*
X119193748Y-105985858D02*
X119179605Y-106000000D01*
X119193748Y-106014143D01*
X119014143Y-106193748D01*
X119000000Y-106179605D01*
X118985858Y-106193748D01*
X118806253Y-106014143D01*
X118820395Y-106000000D01*
X118806253Y-105985858D01*
X118985858Y-105806253D01*
X119000000Y-105820395D01*
X119014143Y-105806253D01*
X119193748Y-105985858D01*
X119193748Y-105985858D01*
G37*
X119193748Y-105985858D02*
X119179605Y-106000000D01*
X119193748Y-106014143D01*
X119014143Y-106193748D01*
X119000000Y-106179605D01*
X118985858Y-106193748D01*
X118806253Y-106014143D01*
X118820395Y-106000000D01*
X118806253Y-105985858D01*
X118985858Y-105806253D01*
X119000000Y-105820395D01*
X119014143Y-105806253D01*
X119193748Y-105985858D01*
G04 #@! TD*
M02*
