M48
;DRILL file {KiCad 5.0.0-rc2-unknown-0e3be57~65~ubuntu16.04.1} date Mon Jun 11 16:33:54 2018
;FORMAT={-:-/ absolute / metric / decimal}
FMAT,2
METRIC,TZ
T1C0.600
T2C0.800
T3C1.000
T4C1.016
T5C1.250
T6C1.400
T7C4.000
T8C3.000
T9C4.000
%
G90
G05
M71
T1
X118.6Y-111.
X118.6Y-111.
X119.4Y-107.8
X128.2Y-111.
X129.6Y-109.
X131.8Y-106.6
X138.6Y-101.2
X138.6Y-103.4
X146.2Y-111.
T2
X121.1Y-123.4
X123.6Y-123.4
X113.Y-104.
X113.Y-106.
X115.Y-104.
X115.Y-106.
X117.Y-104.
X117.Y-106.
X119.Y-104.
X119.Y-106.
X121.Y-104.
X121.Y-106.
X123.Y-104.
X123.Y-106.
X117.8Y-117.
X125.42Y-117.
X135.9Y-108.4
X138.4Y-108.4
X168.Y-124.
X168.Y-131.62
T3
X111.6Y-111.
X123.Y-111.
X119.5Y-113.5
X122.04Y-113.5
X129.5Y-104.
X129.5Y-106.54
X110.92Y-115.
X113.46Y-115.
X116.Y-115.
T4
X142.07Y-108.88
X142.07Y-111.42
X142.07Y-113.96
X142.07Y-116.5
X142.07Y-119.04
X142.07Y-121.58
X142.07Y-124.12
X142.07Y-126.66
X164.93Y-108.88
X164.93Y-111.42
X164.93Y-113.96
X164.93Y-116.5
X164.93Y-119.04
X164.93Y-121.58
X164.93Y-124.12
X164.93Y-126.66
T5
X111.4Y-102.45
X124.6Y-107.55
T6
X128.2Y-113.54
X128.2Y-132.6
X134.54Y-132.6
X137.72Y-113.54
T7
X113.46Y-131.66
T8
X170.8Y-107.5
T9
X104.Y-104.
X104.Y-131.
X174.Y-117.5
T0
M30
