M48
;DRILL file {KiCad 5.0.0-rc2-unknown-9302bbc~65~ubuntu16.04.1} date Fri Jun 15 14:22:45 2018
;FORMAT={-:-/ absolute / metric / decimal}
FMAT,2
METRIC,TZ
T1C0.600
T2C0.800
T3C1.000
T4C1.016
T5C1.250
T6C1.400
T7C4.000
T8C3.000
T9C4.000
%
G90
G05
M71
T1
X119.9Y-114.6
X119.9Y-114.6
X125.5Y-114.4
X131.Y-132.5
X138.6Y-101.2
X138.6Y-103.4
X146.2Y-111.
T2
X121.Y-122.5
X123.5Y-122.5
X110.Y-104.
X110.Y-106.
X112.Y-104.
X112.Y-106.
X114.Y-104.
X114.Y-106.
X116.Y-104.
X116.Y-106.
X118.Y-104.
X118.Y-106.
X120.Y-104.
X120.Y-106.
X117.8Y-117.
X125.42Y-117.
X168.Y-124.
X168.Y-131.62
X136.Y-109.
X138.5Y-109.
T3
X110.92Y-115.
X113.46Y-115.
X116.Y-115.
X126.5Y-109.
X129.04Y-109.
X104.Y-112.
X104.Y-122.5
X133.Y-106.5
X133.Y-109.04
X111.Y-111.
X113.54Y-111.
T4
X142.07Y-108.88
X142.07Y-111.42
X142.07Y-113.96
X142.07Y-116.5
X142.07Y-119.04
X142.07Y-121.58
X142.07Y-124.12
X142.07Y-126.66
X164.93Y-108.88
X164.93Y-111.42
X164.93Y-113.96
X164.93Y-116.5
X164.93Y-119.04
X164.93Y-121.58
X164.93Y-124.12
X164.93Y-126.66
T5
X108.4Y-102.45
X121.6Y-107.55
T6
X128.2Y-113.54
X128.2Y-132.6
X134.54Y-132.6
X137.72Y-113.54
T7
X113.46Y-131.66
T8
X170.8Y-107.5
T9
X104.Y-104.
X104.Y-131.
X174.Y-117.5
T0
M30
